<?xml version="1.0" encoding="utf-8"?>
<!-- Generator: Adobe Illustrator 22.0.1, SVG Export Plug-In . SVG Version: 6.00 Build 0)  -->
<svg version="1.1" id="Layer_1" xmlns="http://www.w3.org/2000/svg" xmlns:xlink="http://www.w3.org/1999/xlink" x="0px" y="0px"
	 width="1920px" height="795px" viewBox="0 0 1920 795" style="enable-background:new 0 0 1920 795;" xml:space="preserve">
<style type="text/css">
	.st0{fill:#13A5E8;}
	.st1{opacity:0.54;fill:#3BC1FF;enable-background:new    ;}
	.st2{fill:url(#SVGID_1_);}
	.st3{opacity:0.7;fill:url(#SVGID_2_);enable-background:new    ;}
	.st4{opacity:0.7;fill:url(#SVGID_3_);enable-background:new    ;}
	.st5{fill:url(#SVGID_4_);}
	.st6{fill:#93DDFF;}
	.st7{fill:url(#SVGID_5_);}
	.st8{fill:url(#SVGID_6_);}
	.st9{fill:url(#SVGID_7_);}
	.st10{opacity:0.11;fill:#6120D5;enable-background:new    ;}
	.st11{opacity:0.7;}
	.st12{fill:#12A6E8;}
	.st13{opacity:0.7;fill:url(#SVGID_8_);enable-background:new    ;}
	.st14{fill:#FFFFFF;}
	.st15{fill:url(#SVGID_9_);}
	.st16{fill:url(#SVGID_10_);}
	.st17{opacity:0.7;fill:url(#SVGID_11_);enable-background:new    ;}
	.st18{opacity:0.43;fill:url(#SVGID_12_);enable-background:new    ;}
	.st19{opacity:0.43;fill:url(#SVGID_13_);enable-background:new    ;}
	.st20{fill:url(#SVGID_14_);}
	.st21{opacity:0.5;fill:url(#SVGID_15_);enable-background:new    ;}
	.st22{fill:url(#SVGID_16_);}
	.st23{fill:#A185FF;}
	.st24{opacity:0.37;fill:url(#SVGID_17_);enable-background:new    ;}
	.st25{opacity:0.46;fill:url(#SVGID_18_);enable-background:new    ;}
	.st26{opacity:0.46;fill:url(#SVGID_19_);enable-background:new    ;}
	.st27{opacity:0.5;fill:#CFC0FF;enable-background:new    ;}
	.st28{fill:url(#SVGID_20_);}
	.st29{fill:url(#SVGID_21_);}
	.st30{opacity:0.7;fill:url(#SVGID_22_);enable-background:new    ;}
	.st31{opacity:0.43;fill:url(#SVGID_23_);enable-background:new    ;}
	.st32{opacity:0.43;fill:url(#SVGID_24_);enable-background:new    ;}
	.st33{fill:url(#SVGID_25_);}
	.st34{opacity:0.5;fill:url(#SVGID_26_);enable-background:new    ;}
	.st35{fill:url(#SVGID_27_);}
	.st36{opacity:0.37;fill:url(#SVGID_28_);enable-background:new    ;}
	.st37{opacity:0.46;fill:url(#SVGID_29_);enable-background:new    ;}
	.st38{opacity:0.46;fill:url(#SVGID_30_);enable-background:new    ;}
	.st39{fill:#CFC0FF;}
	.st40{opacity:0.4;}
	.st41{fill:url(#SVGID_31_);}
	.st42{fill:url(#SVGID_32_);}
	.st43{opacity:0.7;fill:url(#SVGID_33_);enable-background:new    ;}
	.st44{opacity:0.43;fill:url(#SVGID_34_);enable-background:new    ;}
	.st45{opacity:0.43;fill:url(#SVGID_35_);enable-background:new    ;}
	.st46{fill:url(#SVGID_36_);}
	.st47{opacity:0.5;fill:url(#SVGID_37_);enable-background:new    ;}
	.st48{fill:url(#SVGID_38_);}
	.st49{opacity:0.37;fill:url(#SVGID_39_);enable-background:new    ;}
	.st50{opacity:0.46;fill:url(#SVGID_40_);enable-background:new    ;}
	.st51{opacity:0.2;fill:url(#SVGID_41_);enable-background:new    ;}
	.st52{opacity:0.5;}
	.st53{fill:url(#SVGID_42_);}
	.st54{fill:url(#SVGID_43_);}
	.st55{opacity:0.7;fill:url(#SVGID_44_);enable-background:new    ;}
	.st56{opacity:0.5;fill:url(#SVGID_45_);enable-background:new    ;}
	.st57{fill:url(#SVGID_46_);}
	.st58{opacity:0.5;fill:url(#SVGID_47_);enable-background:new    ;}
	.st59{fill:url(#SVGID_48_);}
	.st60{opacity:0.37;fill:url(#SVGID_49_);enable-background:new    ;}
	.st61{opacity:0.33;fill:url(#SVGID_50_);enable-background:new    ;}
	.st62{opacity:0.5;fill:url(#SVGID_51_);enable-background:new    ;}
</style>
<g>
	<path class="st0" d="M1920,0v408.8c-240.1,0.1-363,342.6-905.3,147.9C672.9,434,598.2,580.1,380,539
		C261.3,516.6,165.3,399.4,0.1,421H0V0H1920z"/>
	<polygon class="st1" points="0.5,266.1 421.9,249.5 463.6,238.1 575.1,266.1 704.7,269.8 947.9,257.9 959.7,269.8 997.5,257.9 
		1209.9,282.9 1618.6,282.7 1702.6,266.1 1860,257.9 1920.5,246 1920.5,285.6 0.5,285.6 	"/>
	
		<linearGradient id="SVGID_1_" gradientUnits="userSpaceOnUse" x1="960.15" y1="488.8915" x2="960.15" y2="240.7189" gradientTransform="matrix(1 0 0 -1 0 797)">
		<stop  offset="0" style="stop-color:#450C9D;stop-opacity:0.1"/>
		<stop  offset="1" style="stop-color:#450C9D;stop-opacity:0.5"/>
	</linearGradient>
	<path class="st2" d="M1920.2,285.6l-0.1,123.2h-0.1c-240.1,0.1-363,342.6-905.3,147.9C672.9,434,598.2,580.1,380,539
		C261.3,516.6,165.3,399.4,0.1,421l0.1-135.3h1920V285.6z"/>
	
		<radialGradient id="SVGID_2_" cx="1058.9509" cy="378.8188" r="113.9976" gradientTransform="matrix(1 0 0 -1 0 797)" gradientUnits="userSpaceOnUse">
		<stop  offset="3.017527e-03" style="stop-color:#CFC0FF"/>
		<stop  offset="0.7426" style="stop-color:#CFC0FF;stop-opacity:0"/>
	</radialGradient>
	<circle class="st3" cx="1061.5" cy="416.6" r="99.8"/>
	
		<radialGradient id="SVGID_3_" cx="384.4892" cy="453.9138" r="81.3424" gradientTransform="matrix(-1 0 0 -1 783.0165 797)" gradientUnits="userSpaceOnUse">
		<stop  offset="3.017527e-03" style="stop-color:#CFC0FF"/>
		<stop  offset="0.7426" style="stop-color:#CFC0FF;stop-opacity:0"/>
	</radialGradient>
	<circle class="st4" cx="395" cy="340.3" r="71.2"/>
	<g>
		
			<linearGradient id="SVGID_4_" gradientUnits="userSpaceOnUse" x1="1389" y1="91.2897" x2="1389" y2="402.7495" gradientTransform="matrix(1 0 0 -1 0 797)">
			<stop  offset="0" style="stop-color:#6120D5"/>
			<stop  offset="1" style="stop-color:#12A6E8"/>
		</linearGradient>
		<polygon class="st5" points="1200.8,311.3 1214,340.3 1231.9,418.2 1295.1,497.4 1334.1,556.9 1388.9,574.4 1409.7,595.8 
			1467.4,520.4 1487.7,465.5 1540.9,405.5 1557.7,332.1 1577.2,299.1 1518,285.6 1260.8,285.6 		"/>
		<polygon class="st6" points="1496.7,285.6 1454.2,269.9 1438,253.7 1422.6,220.5 1409.3,210.6 1384.4,241 1344.7,256.7 
			1327,275.3 1277.6,285.6 		"/>
		
			<linearGradient id="SVGID_5_" gradientUnits="userSpaceOnUse" x1="1406.5741" y1="593.3464" x2="1395.6482" y2="541.7426" gradientTransform="matrix(1 0 0 -1 0 797)">
			<stop  offset="0" style="stop-color:#DBF4FF"/>
			<stop  offset="1" style="stop-color:#FFFFFF;stop-opacity:0"/>
		</linearGradient>
		<polygon class="st7" points="1409.3,210.6 1412.7,220.5 1411,230.5 1416.3,225.1 1409.3,255.1 1384.4,241 		"/>
		
			<linearGradient id="SVGID_6_" gradientUnits="userSpaceOnUse" x1="1371.725" y1="537.9267" x2="1366.078" y2="511.256" gradientTransform="matrix(1 0 0 -1 0 797)">
			<stop  offset="0" style="stop-color:#CDEFFF"/>
			<stop  offset="1" style="stop-color:#FFFFFF;stop-opacity:0"/>
		</linearGradient>
		<polygon class="st8" points="1344.7,256.7 1378.8,277.3 1407.8,283.7 1372.1,285.4 1327,275.3 		"/>
		
			<linearGradient id="SVGID_7_" gradientUnits="userSpaceOnUse" x1="1437.9796" y1="547.0522" x2="1431.6006" y2="516.9232" gradientTransform="matrix(1 0 0 -1 0 797)">
			<stop  offset="0" style="stop-color:#CDEFFF"/>
			<stop  offset="1" style="stop-color:#FFFFFF;stop-opacity:0"/>
		</linearGradient>
		<polygon class="st9" points="1454.2,269.9 1412.4,274.2 1429.5,267.9 1432.4,261.9 1438,253.7 		"/>
		<polygon class="st10" points="1200.8,311.3 1260.8,285.6 1291.9,285.6 1283.4,416.7 1260.2,347.9 1214,340.3 		"/>
		<polygon class="st10" points="1291.9,285.6 1308.2,416.7 1326.7,493.8 1326.7,421.2 1349.5,416.7 		"/>
		<polygon class="st10" points="1364.6,349.2 1420.8,388.5 1453.6,435.6 1431.5,378.3 		"/>
		<polygon class="st10" points="1352.6,440.1 1334.1,556.9 1388.9,574.4 		"/>
		<polygon class="st10" points="1431.5,378.3 1557.7,332.1 1540.9,405.5 1453.6,435.6 		"/>
		<polygon class="st10" points="1453.6,465.4 1451,522.6 1426.9,458 		"/>
		<polygon class="st10" points="1292.3,493.8 1255.8,383.8 1231.9,418.2 		"/>
	</g>
	<g class="st11">
		<circle class="st12" cx="581.3" cy="338.7" r="3.2"/>
		<g>
			<circle class="st12" cx="929.4" cy="430" r="9"/>
			<circle class="st12" cx="1584.7" cy="505.9" r="9"/>
			<circle class="st12" cx="276.8" cy="364.6" r="9"/>
			<circle class="st12" cx="412.7" cy="472.9" r="5.8"/>
			<circle class="st12" cx="1146.3" cy="337.1" r="5.8"/>
			<circle class="st12" cx="1729.4" cy="446.5" r="5.8"/>
			<circle class="st12" cx="495.5" cy="297.8" r="2.7"/>
			<circle class="st12" cx="893.6" cy="282" r="1.8"/>
			<circle class="st12" cx="960" cy="330.7" r="3.2"/>
			<circle class="st12" cx="1762" cy="321.9" r="3.2"/>
			<circle class="st12" cx="1662" cy="408.8" r="3.2"/>
			<circle class="st12" cx="834.8" cy="333.9" r="3.2"/>
			<circle class="st12" cx="481.6" cy="348.7" r="3.2"/>
			<circle class="st12" cx="168.4" cy="304.8" r="3.2"/>
		</g>
	</g>
	
		<radialGradient id="SVGID_8_" cx="458.3356" cy="345.3115" r="228.596" gradientTransform="matrix(-0.9965 8.342797e-02 -8.342797e-02 -0.9965 1219.708 729.39)" gradientUnits="userSpaceOnUse">
		<stop  offset="3.017527e-03" style="stop-color:#CFC0FF"/>
		<stop  offset="0.7426" style="stop-color:#CFC0FF;stop-opacity:0"/>
	</radialGradient>
	<circle class="st13" cx="726.1" cy="410.8" r="200.1"/>
	<g>
		<path class="st14" d="M830,434.7C830,434.8,830,434.8,830,434.7c0,0.1,0,0.1,0,0.1C830,434.8,830,434.8,830,434.7L830,434.7z"/>
		<g>
			
				<radialGradient id="SVGID_9_" cx="946.3896" cy="379.2168" r="128.4534" gradientTransform="matrix(-0.9996 2.668362e-02 -2.668362e-02 -0.9996 1621.0345 770.3519)" gradientUnits="userSpaceOnUse">
				<stop  offset="0" style="stop-color:#3BC2FF"/>
				<stop  offset="0.1072" style="stop-color:#36AFEE"/>
				<stop  offset="0.7243" style="stop-color:#1D468F"/>
				<stop  offset="0.9994" style="stop-color:#131C69"/>
			</radialGradient>
			<path class="st15" d="M720.2,441.3c51.5,20,98,24.1,104.9,9.5l0.4-1.2c1.3-3.5,2.5-7,3.4-10.6c0.3-1,0.5-2,0.8-3.1
				c0.1-0.4,0.2-0.8,0.3-1.2v-0.1l0,0v-0.1c0-0.2,0-0.4,0-0.6l0,0c0-1,0.2-1.9,0.7-2.6l0,0l0,0l0,0l0,0c0.7-3.8,1.2-7.7,1.4-11.5
				c0-0.6,0.1-1.1,0.1-1.7V418c0.1-1.8,0.1-3.6,0.1-5.4c-0.1-11.7-2.3-23.3-6.3-34.1c-2.7-7.4-6.3-14.5-10.7-21.1
				c-0.5-0.8-1.1-1.6-1.7-2.4c-4.5-6.4-9.9-12.4-15.9-17.6c-0.5-0.4-1-0.9-1.5-1.3c-1.4-1.2-2.8-2.3-4.3-3.4
				c-0.8-0.6-1.6-1.2-2.4-1.7c-0.7-0.5-1.5-1-2.2-1.5c-0.8-0.6-1.7-1.1-2.5-1.6c-5.4-3.4-11.1-6.3-17.2-8.7
				c-13.5-5.3-27.5-7.4-41.2-6.8c-0.5,0-1,0-1.5,0.1c-0.1,0-0.3,0-0.4,0c-0.3,0-0.6,0-1,0.1c-0.4,0-0.7,0-1.1,0.1
				c-0.2,0-0.4,0-0.6,0.1c-0.5,0-0.9,0.1-1.4,0.1c-0.3,0-0.6,0.1-1,0.1c-0.2,0-0.4,0-0.6,0.1c-0.4,0-0.7,0.1-1.1,0.1
				c-0.4,0.1-0.8,0.1-1.3,0.2c-0.2,0-0.3,0-0.5,0.1c-0.5,0.1-1,0.2-1.5,0.2c-0.1,0-0.3,0-0.4,0.1c-0.6,0.1-1.1,0.2-1.7,0.3
				c-0.1,0-0.1,0-0.2,0c-0.6,0.1-1.3,0.3-1.9,0.4c-2.5,0.5-5,1.1-7.4,1.8c-0.3,0.1-0.7,0.2-1,0.3c-0.4,0.1-0.8,0.2-1.1,0.3
				c-0.2,0.1-0.4,0.1-0.5,0.2c-0.4,0.1-0.8,0.3-1.2,0.4c-0.3,0.1-0.7,0.2-1,0.3c-0.2,0.1-0.4,0.1-0.6,0.2c-0.3,0.1-0.7,0.2-1,0.4
				c-0.4,0.1-0.8,0.3-1.3,0.5c-0.4,0.2-0.9,0.3-1.3,0.5c-0.4,0.2-0.8,0.3-1.2,0.5c-0.5,0.2-1,0.4-1.5,0.6c-0.4,0.2-0.8,0.3-1.2,0.5
				c-2.2,1-4.4,2-6.5,3.2c-0.3,0.2-0.7,0.4-1,0.5s-0.6,0.3-0.8,0.5c-0.3,0.1-0.5,0.3-0.8,0.4c-0.3,0.2-0.5,0.3-0.8,0.5
				c-0.4,0.2-0.8,0.5-1.2,0.7c-0.1,0.1-0.2,0.1-0.4,0.2c-0.5,0.3-1,0.6-1.4,0.9c0,0-0.1,0-0.1,0.1c-0.5,0.3-0.9,0.6-1.4,0.9
				c-1.8,1.1-3.5,2.4-5.2,3.6c-0.5,0.4-1.1,0.8-1.6,1.2c-8.9,6.9-16.7,15.4-23,25.1l0,0c0.1,0.8-0.3,1.4-0.7,1.9
				c-0.2,0.2-0.4,0.3-0.5,0.4c-0.1,0-0.1,0.1-0.2,0.1c-2.9,4.8-5.4,9.9-7.5,15.3l-0.3,0.8C631.3,392.7,668.5,421.2,720.2,441.3z"/>
			
				<radialGradient id="SVGID_10_" cx="815.458" cy="483.252" r="64.9165" gradientTransform="matrix(-0.9996 2.668362e-02 -2.668362e-02 -0.9996 1621.0345 770.3519)" gradientUnits="userSpaceOnUse">
				<stop  offset="0" style="stop-color:#12A6E8"/>
				<stop  offset="1" style="stop-color:#12A6E8;stop-opacity:0"/>
			</radialGradient>
			<path class="st16" d="M668.8,333.7c27.1-14.6,60.1-17.7,91.1-5.7c42.6,16.5,68.8,56.9,69.4,99.9c0,1.1,0,2.1,0,3.2
				c0,2.8-0.2,5.6-0.5,8.4c0.3-1.2,0.6-2.4,0.9-3.6c0.1-0.4,0.2-0.8,0.3-1.2v-0.1l0,0v-0.1c0-0.2,0-0.4,0-0.6l0,0
				c0-1,0.2-1.9,0.7-2.6l0,0l0,0c0.7-3.8,1.1-7.7,1.4-11.5c0-0.6,0.1-1.1,0.1-1.7V418c0.1-1.8,0.1-3.6,0.1-5.4
				c-0.1-11.7-2.3-23.3-6.3-34.1c-2.7-7.4-6.3-14.5-10.7-21.1c-0.5-0.8-1.1-1.6-1.7-2.4c-4.5-6.4-9.9-12.4-15.9-17.6
				c-0.5-0.4-1-0.9-1.5-1.3c-1.4-1.2-2.8-2.3-4.3-3.4c-0.8-0.6-1.6-1.2-2.4-1.7c-0.7-0.5-1.5-1-2.2-1.5c-0.8-0.6-1.7-1.1-2.5-1.6
				c-5.4-3.4-11.1-6.3-17.2-8.7c-13.5-5.3-27.5-7.4-41.2-6.8c-0.5,0-1,0-1.5,0.1c-0.1,0-0.3,0-0.4,0c-0.3,0-0.6,0-1,0.1
				c-0.4,0-0.7,0-1.1,0.1c-0.2,0-0.4,0-0.6,0.1c-0.5,0-0.9,0.1-1.4,0.1c-0.3,0-0.6,0.1-1,0.1c-0.2,0-0.4,0-0.6,0.1
				c-0.4,0-0.7,0.1-1.1,0.1c-0.4,0.1-0.8,0.1-1.3,0.2c-0.2,0-0.3,0-0.5,0.1c-0.5,0.1-1,0.2-1.5,0.2c-0.1,0-0.3,0-0.4,0.1
				c-0.6,0.1-1.1,0.2-1.7,0.3c-0.1,0-0.1,0-0.2,0c-0.6,0.1-1.3,0.3-1.9,0.4c-2.5,0.5-5,1.1-7.4,1.8c-0.3,0.1-0.7,0.2-1,0.3
				c-0.4,0.1-0.8,0.2-1.1,0.3c-0.2,0.1-0.4,0.1-0.5,0.2c-0.4,0.1-0.8,0.3-1.2,0.4c-0.3,0.1-0.7,0.2-1,0.3c-0.2,0.1-0.4,0.1-0.6,0.2
				c-0.3,0.1-0.7,0.2-1,0.4c-0.4,0.1-0.8,0.3-1.3,0.5c-0.4,0.2-0.9,0.3-1.3,0.5c-0.4,0.2-0.8,0.3-1.2,0.5c-0.5,0.2-1,0.4-1.5,0.6
				c-0.4,0.2-0.8,0.3-1.2,0.5c-2.2,1-4.4,2-6.5,3.2c-0.3,0.2-0.7,0.4-1,0.5s-0.6,0.3-0.8,0.5c-0.3,0.1-0.5,0.3-0.8,0.4
				c-0.3,0.2-0.5,0.3-0.8,0.5c-0.4,0.2-0.8,0.5-1.2,0.7c-0.1,0.1-0.2,0.1-0.4,0.2c-0.5,0.3-1,0.6-1.4,0.9c0,0-0.1,0-0.1,0.1
				c-0.5,0.3-0.9,0.6-1.4,0.9c-1.8,1.1-3.5,2.4-5.2,3.6C669.9,332.9,669.3,333.3,668.8,333.7z"/>
			
				<linearGradient id="SVGID_11_" gradientUnits="userSpaceOnUse" x1="718.257" y1="421.011" x2="717.5676" y2="333.8193" gradientTransform="matrix(0.9996 -2.668362e-02 -2.668362e-02 -0.9996 23.5262 812.9943)">
				<stop  offset="0" style="stop-color:#6120D5"/>
				<stop  offset="0.117" style="stop-color:#7238DB"/>
				<stop  offset="0.4188" style="stop-color:#9A72EB"/>
				<stop  offset="0.6771" style="stop-color:#B79CF6"/>
				<stop  offset="0.8789" style="stop-color:#C8B6FC"/>
				<stop  offset="0.9994" style="stop-color:#CFC0FF"/>
			</linearGradient>
			<path class="st17" d="M636.8,376.6L636.8,376.6c6.6-14.9,53.3-10.8,105,9.3c51.5,20,88.6,48.3,83.8,63.8
				c-0.1,0.2-0.1,0.4-0.2,0.6c-0.1,0.2-0.2,0.4-0.2,0.6c-6.9,14.6-53.4,10.5-104.9-9.5c-51.7-20.1-88.9-48.6-83.8-64l0,0
				c0-0.1,0.1-0.2,0.1-0.4C636.7,376.8,636.7,376.7,636.8,376.6z M721.5,438.1c48.9,19,92.5,24.1,97.4,11.3
				c4.9-12.7-30.7-38.4-79.5-57.4c-48.9-19-92.5-24.1-97.4-11.3C637,393.4,672.6,419.1,721.5,438.1z"/>
			<g>
				
					<linearGradient id="SVGID_12_" gradientUnits="userSpaceOnUse" x1="781.82" y1="356.7067" x2="781.8328" y2="356.7067" gradientTransform="matrix(-0.9996 2.668362e-02 -2.668362e-02 -0.9996 1621.0345 770.3519)">
					<stop  offset="6.200396e-04" style="stop-color:#12A6E8"/>
					<stop  offset="0.1414" style="stop-color:#1CAAEA"/>
					<stop  offset="0.3772" style="stop-color:#35B5EE"/>
					<stop  offset="0.6789" style="stop-color:#60C7F6"/>
					<stop  offset="1" style="stop-color:#94DEFF"/>
				</linearGradient>
				<path class="st18" d="M830,434.7v-0.1V434.7L830,434.7z"/>
				
					<linearGradient id="SVGID_13_" gradientUnits="userSpaceOnUse" x1="781.1398" y1="399.0976" x2="964.8005" y2="399.0976" gradientTransform="matrix(-0.9996 2.668362e-02 -2.668362e-02 -0.9996 1621.0345 770.3519)">
					<stop  offset="6.200396e-04" style="stop-color:#12A6E8"/>
					<stop  offset="0.1414" style="stop-color:#1CAAEA"/>
					<stop  offset="0.3772" style="stop-color:#35B5EE"/>
					<stop  offset="0.6789" style="stop-color:#60C7F6"/>
					<stop  offset="1" style="stop-color:#94DEFF"/>
				</linearGradient>
				<path class="st19" d="M645,360.8c13.7-9.4,55.8-3.7,100.9,13.8c43.9,17,78.2,40.5,83.4,56.5c0.3,1,0.5,1.9,0.6,2.8
					c0-1,0.2-1.9,0.7-2.6l0,0l0,0l0,0l0,0l0,0c-0.3-1.1-0.8-2.2-1.4-3.4c-8.2-16.3-41.2-38.4-82.9-54.6
					c-43.9-17.1-85.2-22.9-100.6-14.5c0,0,0,0-0.1,0l0,0l0,0C645.9,359.7,645.5,360.3,645,360.8z"/>
			</g>
			
				<radialGradient id="SVGID_14_" cx="1442.2163" cy="-1470.8123" r="168.1188" gradientTransform="matrix(-0.9322 -0.362 0.1545 -0.3977 2290.1624 380.847)" gradientUnits="userSpaceOnUse">
				<stop  offset="0" style="stop-color:#6120D5"/>
				<stop  offset="0.3132" style="stop-color:#411EA8"/>
				<stop  offset="0.6041" style="stop-color:#281D86"/>
				<stop  offset="0.8429" style="stop-color:#191C71"/>
				<stop  offset="1" style="stop-color:#131C69"/>
			</radialGradient>
			<path class="st20" d="M641.9,380.7c-4.9,12.7,30.7,38.4,79.5,57.4c48.9,19,92.5,24.1,97.4,11.3c4.9-12.7-30.7-38.4-79.5-57.4
				C690.5,373.1,646.9,368,641.9,380.7z"/>
			
				<linearGradient id="SVGID_15_" gradientUnits="userSpaceOnUse" x1="1651.5935" y1="-1071.1133" x2="1448.7883" y2="-746.2495" gradientTransform="matrix(-0.9322 -0.362 0.362 -0.9322 2329.6724 279.4577)">
				<stop  offset="0" style="stop-color:#A185FF;stop-opacity:0"/>
				<stop  offset="1" style="stop-color:#A185FF"/>
			</linearGradient>
			<path class="st21" d="M739.4,392.1c48.9,19,84.5,44.7,79.5,57.4c0,0.1,0-0.1,0,0c-114,275.7-361.6,64.6-432,207.1L338.8,632
				c87-197.7,270-63.9,302.9-250.4C644.2,367.3,690.5,373.1,739.4,392.1z"/>
			
				<radialGradient id="SVGID_16_" cx="1441.7401" cy="-2864.5142" r="54.2558" gradientTransform="matrix(-0.9322 -0.362 7.334431e-02 -0.1888 2281.7134 402.6768)" gradientUnits="userSpaceOnUse">
				<stop  offset="0" style="stop-color:#221C88"/>
				<stop  offset="0.2999" style="stop-color:#241C8A"/>
				<stop  offset="0.4726" style="stop-color:#291E93"/>
				<stop  offset="0.6129" style="stop-color:#3121A1"/>
				<stop  offset="0.7359" style="stop-color:#3D25B5"/>
				<stop  offset="0.8476" style="stop-color:#4D2ACE"/>
				<stop  offset="0.9496" style="stop-color:#6030ED"/>
				<stop  offset="0.9976" style="stop-color:#6B34FF"/>
			</radialGradient>
			<path class="st22" d="M693.3,398.9c-2,5.2,13.2,15.9,34.1,24c20.8,8.1,39.3,10.4,41.3,5.3c0.4-1,0.1-2.2-0.6-3.5
				c-6.3,1.9-21.6-0.9-38.5-7.4c-16.9-6.6-30.1-14.9-33.4-20.5C694.6,397.3,693.7,398,693.3,398.9z"/>
			<path class="st12" d="M696.1,396.8c3.3,5.7,16.5,14,33.4,20.5c16.9,6.6,32.2,9.3,38.5,7.4c-3.3-5.7-16.5-14-33.4-20.5
				C717.7,397.7,702.4,394.9,696.1,396.8z"/>
			<path class="st23" d="M696.1,396.8c3.3,5.7,16.5,14,33.4,20.5c16.9,6.6,32.2,9.3,38.5,7.4c-3.3-5.7-16.5-14-33.4-20.5
				C717.7,397.7,702.4,394.9,696.1,396.8z"/>
			
				<linearGradient id="SVGID_17_" gradientUnits="userSpaceOnUse" x1="1554.5415" y1="-806.5461" x2="1554.5415" y2="-1037.0891" gradientTransform="matrix(-0.9322 -0.362 0.362 -0.9322 2329.6724 279.4577)">
				<stop  offset="0" style="stop-color:#A185FF"/>
				<stop  offset="1" style="stop-color:#A185FF;stop-opacity:0"/>
			</linearGradient>
			<path class="st24" d="M696.4,396.9c-57.9,202.5-250.6,85.5-333.9,235.6l8,4.2c94.6-145.2,306.7,11.4,397.5-212
				c-9.2-8.4-21.4-15.8-33.5-20.4C719.7,398.5,697.1,394.6,696.4,396.9z"/>
			
				<linearGradient id="SVGID_18_" gradientUnits="userSpaceOnUse" x1="949.1584" y1="266.7406" x2="878.5121" y2="382.1968" gradientTransform="matrix(-0.9996 2.668362e-02 -2.668362e-02 -0.9996 1621.0345 770.3519)">
				<stop  offset="5.993717e-04" style="stop-color:#6120D5"/>
				<stop  offset="2.626786e-02" style="stop-color:#6324D7;stop-opacity:0.9769"/>
				<stop  offset="0.3283" style="stop-color:#7E4EE8;stop-opacity:0.7049"/>
				<stop  offset="0.6018" style="stop-color:#916CF5;stop-opacity:0.4586"/>
				<stop  offset="0.8349" style="stop-color:#9D7EFC;stop-opacity:0.2487"/>
				<stop  offset="1" style="stop-color:#A185FF;stop-opacity:0.1"/>
			</linearGradient>
			<path class="st25" d="M673.4,504.8c41-22.3,56.7-16.5,39.9,3.5l0,0c20.9-19.3,39.6-46.1,54.8-83.5c-9.2-8.4-21.4-15.8-33.5-20.4
				c-14.8-5.8-37.5-9.7-38.2-7.4c-9.7,33.7-23,58.6-39,77.3c1.5,7-4,16.6-21.6,30.4C617.1,519.3,631.1,527.8,673.4,504.8z"/>
			
				<linearGradient id="SVGID_19_" gradientUnits="userSpaceOnUse" x1="1185.4033" y1="254.4085" x2="918.4998" y2="330.4865" gradientTransform="matrix(-0.9996 2.668362e-02 -2.668362e-02 -0.9996 1621.0345 770.3519)">
				<stop  offset="5.993717e-04" style="stop-color:#6120D5"/>
				<stop  offset="0.1024" style="stop-color:#723BE0;stop-opacity:0.9083"/>
				<stop  offset="0.2298" style="stop-color:#8356EB;stop-opacity:0.7936"/>
				<stop  offset="0.3693" style="stop-color:#906BF4;stop-opacity:0.668"/>
				<stop  offset="0.5251" style="stop-color:#9A7AFA;stop-opacity:0.5277"/>
				<stop  offset="0.7101" style="stop-color:#9F82FE;stop-opacity:0.361"/>
				<stop  offset="1" style="stop-color:#A185FF;stop-opacity:0.1"/>
			</linearGradient>
			<path class="st26" d="M498.4,553.8c8.9,5.5,130.4-25.8,101.7,3c65.8-9.5,128.4-34.7,167.9-132c-9.2-8.4-21.4-15.8-33.5-20.4
				c-14.8-5.8-37.5-9.7-38.2-7.4c-24.8,86.8-74.4,114.9-129.5,130.5c0,0,28.4,7.2,0,0C587.5,539.6,492.1,549.8,498.4,553.8z"/>
			<g>
				<path class="st14" d="M641.8,460.4l1.5,3.9c0.1,0.1,0.2,0.3,0.3,0.3l3.9,1.3c0.5,0.2,0.5,0.8,0,1l-3.9,1.5
					c-0.1,0.1-0.3,0.2-0.3,0.3l-1.3,3.9c-0.2,0.5-0.8,0.5-1,0l-1.5-3.9c-0.1-0.1-0.2-0.3-0.3-0.3l-3.9-1.3c-0.5-0.2-0.5-0.8,0-1
					l3.9-1.5c0.1-0.1,0.3-0.2,0.3-0.3l1.3-3.9C641,460,641.6,459.9,641.8,460.4z"/>
				<path class="st14" d="M690.9,535.9l1,2.7c0,0.1,0.1,0.2,0.2,0.2l2.8,0.9c0.3,0.1,0.3,0.6,0,0.7l-2.7,1c-0.1,0-0.2,0.1-0.2,0.2
					l-0.9,2.8c-0.1,0.3-0.6,0.3-0.7,0l-1-2.7c0-0.1-0.1-0.2-0.2-0.2l-2.8-0.9c-0.3-0.1-0.3-0.6,0-0.7l2.7-1c0.1,0,0.2-0.1,0.2-0.2
					l0.9-2.8C690.3,535.5,690.8,535.5,690.9,535.9z"/>
				<path class="st14" d="M598.4,511.4l1,2.7c0,0.1,0.1,0.2,0.2,0.2l2.8,0.9c0.3,0.1,0.3,0.6,0,0.7l-2.7,1c-0.1,0-0.2,0.1-0.2,0.2
					l-0.9,2.8c-0.1,0.3-0.6,0.3-0.7,0l-1-2.7c0-0.1-0.1-0.2-0.2-0.2l-2.8-0.9c-0.3-0.1-0.3-0.6,0-0.7l2.7-1c0.1,0,0.2-0.1,0.2-0.2
					l0.9-2.8C597.8,511.1,598.3,511.1,598.4,511.4z"/>
				<path class="st14" d="M747.7,457.9l2.2,5.7c0.1,0.2,0.3,0.4,0.5,0.5l5.9,1.9c0.7,0.2,0.7,1.2,0,1.5l-5.7,2.2
					c-0.2,0.1-0.4,0.3-0.5,0.5l-1.9,5.9c-0.2,0.7-1.2,0.7-1.5,0l-2.2-5.7c-0.1-0.2-0.3-0.4-0.5-0.5l-5.9-1.9c-0.7-0.2-0.7-1.2,0-1.5
					l5.7-2.2c0.2-0.1,0.4-0.3,0.5-0.5l1.9-5.9C746.5,457.3,747.5,457.3,747.7,457.9z"/>
				<circle class="st14" cx="631.5" cy="484.6" r="1.4"/>
				<circle class="st14" cx="642.6" cy="562.4" r="1.4"/>
				<circle class="st14" cx="724.6" cy="469" r="1.4"/>
				<circle class="st14" cx="733.4" cy="520.4" r="1.4"/>
				<path class="st14" d="M581.4,511.7c0.8,0,1.4,0.6,1.4,1.4s-0.6,1.4-1.4,1.4s-1.4-0.6-1.4-1.4S580.6,511.7,581.4,511.7z"/>
				<circle class="st14" cx="666.4" cy="539.1" r="2.8"/>
				<circle class="st14" cx="692.3" cy="475.4" r="2.8"/>
			</g>
			<path class="st27" d="M696.1,396.8c3.3,5.7,16.5,14,33.4,20.5c16.9,6.6,32.2,9.3,38.5,7.4c-3.3-5.7-16.5-14-33.4-20.5
				C717.7,397.7,702.4,394.9,696.1,396.8z"/>
		</g>
	</g>
	<g class="st11">
		
			<radialGradient id="SVGID_20_" cx="1094.0892" cy="378.2961" r="63.5934" gradientTransform="matrix(1 0 0 -1 0 797)" gradientUnits="userSpaceOnUse">
			<stop  offset="0" style="stop-color:#3BC2FF"/>
			<stop  offset="0.1072" style="stop-color:#36AFEE"/>
			<stop  offset="0.7247" style="stop-color:#1D468F"/>
			<stop  offset="1" style="stop-color:#131C69"/>
		</radialGradient>
		<path class="st28" d="M1067,431.7c-25.2,10.6-48.2,13.2-51.8,6.1l-0.2-0.6c-0.7-1.7-1.3-3.4-1.8-5.2c-0.1-0.5-0.3-1-0.4-1.5
			c-0.1-0.2-0.1-0.4-0.1-0.6c0,0,0,0,0-0.1l0,0c0,0,0,0,0-0.1s0-0.2,0-0.3l0,0c0-0.5-0.1-1-0.4-1.3l0,0l0,0l0,0l0,0
			c-0.4-1.9-0.7-3.8-0.8-5.7c0-0.3,0-0.6-0.1-0.8c0,0,0,0,0-0.1c-0.1-0.9-0.1-1.8-0.1-2.7c-0.1-5.8,0.8-11.5,2.6-17
			c1.3-3.7,2.9-7.3,5-10.6c0.3-0.4,0.5-0.8,0.8-1.2c2.2-3.2,4.7-6.2,7.6-8.9c0.2-0.2,0.5-0.4,0.7-0.7c0.7-0.6,1.4-1.2,2.1-1.7
			c0.4-0.3,0.8-0.6,1.1-0.9c0.4-0.3,0.7-0.5,1.1-0.8s0.8-0.6,1.2-0.8c2.6-1.7,5.4-3.3,8.4-4.5c6.6-2.8,13.5-4,20.3-3.9
			c0.3,0,0.5,0,0.8,0c0.1,0,0.1,0,0.2,0c0.2,0,0.3,0,0.5,0s0.4,0,0.5,0s0.2,0,0.3,0c0.2,0,0.5,0,0.7,0s0.3,0,0.5,0
			c0.1,0,0.2,0,0.3,0c0.2,0,0.4,0,0.6,0.1c0.2,0,0.4,0,0.6,0.1c0.1,0,0.2,0,0.2,0c0.3,0,0.5,0.1,0.8,0.1c0.1,0,0.1,0,0.2,0
			c0.3,0,0.6,0.1,0.8,0.1h0.1c0.3,0.1,0.6,0.1,1,0.2c1.2,0.2,2.5,0.5,3.7,0.8c0.2,0,0.3,0.1,0.5,0.1c0.2,0.1,0.4,0.1,0.6,0.2
			c0.1,0,0.2,0.1,0.3,0.1c0.2,0.1,0.4,0.1,0.6,0.2s0.3,0.1,0.5,0.2c0.1,0,0.2,0.1,0.3,0.1c0.2,0.1,0.3,0.1,0.5,0.2s0.4,0.1,0.6,0.2
			s0.4,0.1,0.6,0.2s0.4,0.1,0.6,0.2c0.3,0.1,0.5,0.2,0.8,0.3c0.2,0.1,0.4,0.2,0.6,0.2c1.1,0.5,2.2,0.9,3.3,1.5
			c0.2,0.1,0.3,0.2,0.5,0.3c0.1,0.1,0.3,0.1,0.4,0.2s0.3,0.1,0.4,0.2s0.3,0.1,0.4,0.2c0.2,0.1,0.4,0.2,0.6,0.3
			c0.1,0,0.1,0.1,0.2,0.1c0.2,0.1,0.5,0.3,0.7,0.4c0,0,0,0,0.1,0c0.2,0.1,0.5,0.3,0.7,0.4c0.9,0.5,1.8,1.1,2.6,1.7
			c0.3,0.2,0.5,0.4,0.8,0.6c4.5,3.3,8.5,7.4,11.7,12.1l0,0c-0.1,0.4,0.2,0.7,0.4,0.9c0.1,0.1,0.2,0.1,0.3,0.2c0,0,0.1,0,0.1,0.1
			c1.5,2.3,2.8,4.8,3.9,7.5l0.2,0.4C1110.4,406.5,1092.3,421.1,1067,431.7z"/>
		
			<radialGradient id="SVGID_21_" cx="1029.2688" cy="429.8009" r="32.1382" gradientTransform="matrix(1 0 0 -1 0 797)" gradientUnits="userSpaceOnUse">
			<stop  offset="0" style="stop-color:#12A6E8"/>
			<stop  offset="1" style="stop-color:#12A6E8;stop-opacity:0"/>
		</radialGradient>
		<path class="st29" d="M1091,377.7c-13.6-6.9-30-8-45.1-1.6c-20.8,8.7-33.3,29.1-33,50.4c0,0.5,0,1.1,0,1.6
			c0.1,1.4,0.2,2.8,0.3,4.2c-0.2-0.6-0.3-1.2-0.5-1.8c-0.1-0.2-0.1-0.4-0.1-0.6l0,0l0,0c0,0,0,0,0-0.1s0-0.2,0-0.3l0,0
			c0-0.5-0.1-1-0.4-1.3l0,0l0,0c-0.4-1.9-0.7-3.8-0.8-5.7c0-0.3,0-0.6-0.1-0.8c0,0,0,0,0-0.1c-0.1-0.9-0.1-1.8-0.1-2.7
			c-0.1-5.8,0.8-11.5,2.6-17c1.3-3.7,2.9-7.3,5-10.6c0.3-0.4,0.5-0.8,0.8-1.2c2.2-3.2,4.7-6.2,7.6-8.9c0.2-0.2,0.5-0.4,0.7-0.7
			c0.7-0.6,1.4-1.2,2.1-1.7c0.4-0.3,0.8-0.6,1.1-0.9c0.4-0.3,0.7-0.5,1.1-0.8s0.8-0.6,1.2-0.8c2.6-1.7,5.4-3.3,8.4-4.5
			c6.6-2.8,13.5-4,20.3-3.9c0.3,0,0.5,0,0.8,0c0.1,0,0.1,0,0.2,0c0.2,0,0.3,0,0.5,0s0.4,0,0.5,0s0.2,0,0.3,0c0.2,0,0.5,0,0.7,0
			s0.3,0,0.5,0c0.1,0,0.2,0,0.3,0c0.2,0,0.4,0,0.6,0.1c0.2,0,0.4,0,0.6,0.1c0.1,0,0.2,0,0.2,0c0.3,0,0.5,0.1,0.8,0.1
			c0.1,0,0.1,0,0.2,0c0.3,0,0.6,0.1,0.8,0.1h0.1c0.3,0.1,0.6,0.1,1,0.2c1.2,0.2,2.5,0.5,3.7,0.8c0.2,0,0.3,0.1,0.5,0.1
			c0.2,0.1,0.4,0.1,0.6,0.2c0.1,0,0.2,0.1,0.3,0.1c0.2,0.1,0.4,0.1,0.6,0.2s0.3,0.1,0.5,0.2c0.1,0,0.2,0.1,0.3,0.1
			c0.2,0.1,0.3,0.1,0.5,0.2s0.4,0.1,0.6,0.2s0.4,0.1,0.6,0.2s0.4,0.1,0.6,0.2c0.3,0.1,0.5,0.2,0.8,0.3c0.2,0.1,0.4,0.2,0.6,0.2
			c1.1,0.5,2.2,0.9,3.3,1.5c0.2,0.1,0.3,0.2,0.5,0.3c0.1,0.1,0.3,0.1,0.4,0.2s0.3,0.1,0.4,0.2s0.3,0.1,0.4,0.2
			c0.2,0.1,0.4,0.2,0.6,0.3c0.1,0,0.1,0.1,0.2,0.1c0.2,0.1,0.5,0.3,0.7,0.4c0,0,0,0,0.1,0c0.2,0.1,0.5,0.3,0.7,0.4
			c0.9,0.5,1.8,1.1,2.6,1.7C1090.5,377.4,1090.8,377.5,1091,377.7z"/>
		
			<linearGradient id="SVGID_22_" gradientUnits="userSpaceOnUse" x1="1608.1449" y1="-762.6754" x2="1607.9302" y2="-789.8369" gradientTransform="matrix(0.9222 -0.3868 -0.3868 -0.9222 -721.4118 325.114)">
			<stop  offset="0" style="stop-color:#6120D5"/>
			<stop  offset="0.117" style="stop-color:#7238DB"/>
			<stop  offset="0.4188" style="stop-color:#9A72EB"/>
			<stop  offset="0.6771" style="stop-color:#B79CF6"/>
			<stop  offset="0.8789" style="stop-color:#C8B6FC"/>
			<stop  offset="0.9994" style="stop-color:#CFC0FF"/>
		</linearGradient>
		<path class="st30" d="M1107.5,398.5L1107.5,398.5c-3.5-7.3-26.5-4.6-51.8,6c-25.2,10.6-43.2,25.1-40.6,32.7c0,0.1,0.1,0.2,0.1,0.3
			c0,0.1,0.1,0.2,0.1,0.3c3.6,7.1,26.6,4.5,51.8-6.1c25.3-10.6,43.4-25.2,40.6-32.8l0,0c0-0.1,0-0.1-0.1-0.2
			C1107.5,398.7,1107.5,398.6,1107.5,398.5z M1066.4,430.1c-23.9,10-45.5,13.1-48.1,6.9s14.7-19.4,38.6-29.4s45.5-13.1,48.1-6.9
			C1107.6,406.9,1090.3,420.1,1066.4,430.1z"/>
		<g>
			
				<linearGradient id="SVGID_23_" gradientUnits="userSpaceOnUse" x1="1012.6" y1="367.1222" x2="1012.6" y2="367.1222" gradientTransform="matrix(1 0 0 -1 0 797)">
				<stop  offset="6.200396e-04" style="stop-color:#12A6E8"/>
				<stop  offset="0.1414" style="stop-color:#1CAAEA"/>
				<stop  offset="0.3772" style="stop-color:#35B5EE"/>
				<stop  offset="0.6789" style="stop-color:#60C7F6"/>
				<stop  offset="1" style="stop-color:#94DEFF"/>
			</linearGradient>
			<path class="st31" d="M1012.6,429.9C1012.6,429.9,1012.6,429.8,1012.6,429.9C1012.6,429.8,1012.6,429.9,1012.6,429.9
				L1012.6,429.9z"/>
			
				<linearGradient id="SVGID_24_" gradientUnits="userSpaceOnUse" x1="1012.3" y1="388.1201" x2="1103.2" y2="388.1201" gradientTransform="matrix(1 0 0 -1 0 797)">
				<stop  offset="6.200396e-04" style="stop-color:#12A6E8"/>
				<stop  offset="0.1414" style="stop-color:#1CAAEA"/>
				<stop  offset="0.3772" style="stop-color:#35B5EE"/>
				<stop  offset="0.6789" style="stop-color:#60C7F6"/>
				<stop  offset="1" style="stop-color:#94DEFF"/>
			</linearGradient>
			<path class="st32" d="M1103.2,390.8c-6.9-4.5-27.7-1.1-49.7,8.2c-21.5,9-38.2,21.1-40.5,29.1c-0.1,0.5-0.2,1-0.3,1.4
				c0-0.5-0.1-1-0.4-1.3l0,0l0,0l0,0l0,0l0,0c0.1-0.5,0.4-1.1,0.6-1.7c3.8-8.2,19.9-19.5,40.3-28.1c21.5-9,41.9-12.5,49.6-8.5l0,0
				l0,0l0,0C1102.7,390.3,1102.9,390.6,1103.2,390.8z"/>
		</g>
		
			<radialGradient id="SVGID_25_" cx="1608.3551" cy="-1557.2307" r="83.2306" gradientTransform="matrix(0.9222 -0.3868 -0.165 -0.3934 -672.288 442.251)" gradientUnits="userSpaceOnUse">
			<stop  offset="0" style="stop-color:#6120D5"/>
			<stop  offset="0.3132" style="stop-color:#411EA8"/>
			<stop  offset="0.6041" style="stop-color:#281D86"/>
			<stop  offset="0.8429" style="stop-color:#191C71"/>
			<stop  offset="1" style="stop-color:#131C69"/>
		</radialGradient>
		<path class="st33" d="M1105,400.7c2.6,6.2-14.7,19.4-38.6,29.4s-45.5,13.1-48.1,6.9s14.7-19.4,38.6-29.4
			C1080.8,397.5,1102.3,394.4,1105,400.7z"/>
		
			<linearGradient id="SVGID_26_" gradientUnits="userSpaceOnUse" x1="1190.2634" y1="246.8544" x2="1092.473" y2="378.0262" gradientTransform="matrix(1 0 0 -1 0 797)">
			<stop  offset="0" style="stop-color:#A185FF;stop-opacity:0"/>
			<stop  offset="0.5191" style="stop-color:#A185FF;stop-opacity:0.7"/>
			<stop  offset="1" style="stop-color:#6120D5"/>
		</linearGradient>
		<path class="st34" d="M1056.9,407.6c-23.9,10-41.2,23.2-38.6,29.4l0,0c60.1,134.9,179.8,27.2,216.5,96.8l23.5-12.8
			c-45.6-96.7-139.2-27.7-153.4-120.3C1103.8,393.3,1080.8,397.5,1056.9,407.6z"/>
		
			<radialGradient id="SVGID_27_" cx="1608.093" cy="-3022.571" r="26.8604" gradientTransform="matrix(0.9222 -0.3868 -7.835719e-02 -0.1868 -656.7073 479.3594)" gradientUnits="userSpaceOnUse">
			<stop  offset="0" style="stop-color:#221C88"/>
			<stop  offset="0.2999" style="stop-color:#241C8A"/>
			<stop  offset="0.4726" style="stop-color:#291E93"/>
			<stop  offset="0.6129" style="stop-color:#3121A1"/>
			<stop  offset="0.7359" style="stop-color:#3D25B5"/>
			<stop  offset="0.8476" style="stop-color:#4D2ACE"/>
			<stop  offset="0.9496" style="stop-color:#6030ED"/>
			<stop  offset="0.9976" style="stop-color:#6B34FF"/>
		</radialGradient>
		<path class="st35" d="M1079.8,410.4c1.1,2.5-6.3,8.1-16.5,12.3c-10.2,4.3-19.3,5.7-20.4,3.2c-0.2-0.5-0.1-1.1,0.3-1.7
			c3.1,0.9,10.7-0.7,19-4.2s14.7-7.8,16.3-10.6C1079.1,409.5,1079.6,409.9,1079.8,410.4z"/>
		<path class="st12" d="M1078.4,409.3c-1.6,2.8-8,7.1-16.3,10.6s-15.8,5.1-19,4.2c1.6-2.8,8-7.1,16.3-10.6
			C1067.7,410.1,1075.2,408.5,1078.4,409.3z"/>
		<path class="st23" d="M1078.4,409.3c-1.6,2.8-8,7.1-16.3,10.6s-15.8,5.1-19,4.2c1.6-2.8,8-7.1,16.3-10.6
			C1067.7,410.1,1075.2,408.5,1078.4,409.3z"/>
		
			<linearGradient id="SVGID_28_" gradientUnits="userSpaceOnUse" x1="1663.8568" y1="-826.1604" x2="1663.8568" y2="-940.2953" gradientTransform="matrix(0.9222 -0.3868 -0.3868 -0.9222 -721.4118 325.114)">
			<stop  offset="0" style="stop-color:#A185FF"/>
			<stop  offset="1" style="stop-color:#A185FF;stop-opacity:0"/>
		</linearGradient>
		<path class="st36" d="M1078.2,409.4c31.4,99.5,125.1,39,168.4,112.2l-3.9,2.2c-48.7-70.6-151.6,9.7-199.5-99.7
			c4.4-4.3,10.4-8.1,16.3-10.6C1066.7,410.5,1077.9,408.3,1078.2,409.4z"/>
		
			<linearGradient id="SVGID_29_" gradientUnits="userSpaceOnUse" x1="1091.7555" y1="328.5837" x2="1056.7806" y2="385.7426" gradientTransform="matrix(1 0 0 -1 0 797)">
			<stop  offset="5.993717e-04" style="stop-color:#6120D5"/>
			<stop  offset="0.1666" style="stop-color:#6628D9;stop-opacity:0.8505"/>
			<stop  offset="0.4304" style="stop-color:#753FE2;stop-opacity:0.6129"/>
			<stop  offset="0.7572" style="stop-color:#8D65F2;stop-opacity:0.3186"/>
			<stop  offset="1" style="stop-color:#A185FF;stop-opacity:0.1"/>
		</linearGradient>
		<path class="st37" d="M1091,462.5c-20.6-10.5-28.3-7.4-19.7,2.3l0,0c-10.6-9.3-20.2-22.3-28.2-40.6c4.4-4.3,10.4-8.1,16.3-10.6
			c7.3-3.1,18.4-5.3,18.8-4.2c5.2,16.6,12.2,28.7,20.3,37.8c-0.7,3.5,2.2,8.2,11.1,14.8C1119.1,468.9,1112.3,473.3,1091,462.5z"/>
		
			<linearGradient id="SVGID_30_" gradientUnits="userSpaceOnUse" x1="1190.9586" y1="322.72" x2="1058.8226" y2="360.3839" gradientTransform="matrix(1 0 0 -1 0 797)">
			<stop  offset="5.993717e-04" style="stop-color:#6120D5"/>
			<stop  offset="0.3057" style="stop-color:#7743E3;stop-opacity:0.7253"/>
			<stop  offset="0.769" style="stop-color:#9573F7;stop-opacity:0.308"/>
			<stop  offset="1" style="stop-color:#A185FF;stop-opacity:0.1"/>
		</linearGradient>
		<path class="st38" d="M1178.3,484.4c-4.3,2.9-64.9-11-50.3,2.8c-32.7-3.8-64-15.5-84.8-63.1c4.4-4.3,10.4-8.1,16.3-10.6
			c7.3-3.1,18.4-5.3,18.8-4.2c13.4,42.6,38.3,55.9,65.8,62.9c0,0-13.9,4,0,0C1134,478.6,1181.4,482.4,1178.3,484.4z"/>
		<g>
			<path class="st39" d="M1106.1,440.1l-0.7,1.9c0,0.1-0.1,0.1-0.2,0.2l-1.9,0.7c-0.2,0.1-0.2,0.4,0,0.5l1.9,0.7
				c0.1,0,0.1,0.1,0.2,0.2l0.7,1.9c0.1,0.2,0.4,0.2,0.5,0l0.7-1.9c0-0.1,0.1-0.1,0.2-0.2l1.9-0.7c0.2-0.1,0.2-0.4,0-0.5l-1.9-0.7
				c-0.1,0-0.1-0.1-0.2-0.2l-0.7-1.9C1106.5,439.9,1106.2,439.9,1106.1,440.1z"/>
			<path class="st39" d="M1082.8,478.1l-0.5,1.4c0,0.1-0.1,0.1-0.1,0.1l-1.4,0.5c-0.2,0.1-0.2,0.3,0,0.3l1.4,0.5
				c0.1,0,0.1,0.1,0.1,0.1l0.5,1.4c0.1,0.2,0.3,0.2,0.3,0l0.5-1.4c0-0.1,0.1-0.1,0.1-0.1l1.4-0.5c0.2-0.1,0.2-0.3,0-0.3l-1.4-0.5
				c-0.1,0-0.1-0.1-0.1-0.1l-0.5-1.4C1083.1,477.9,1082.8,477.9,1082.8,478.1z"/>
			<path class="st39" d="M1128.2,464.8l-0.5,1.4c0,0.1-0.1,0.1-0.1,0.1l-1.4,0.5c-0.2,0.1-0.2,0.3,0,0.3l1.4,0.5
				c0.1,0,0.1,0.1,0.1,0.1l0.5,1.4c0.1,0.2,0.3,0.2,0.3,0l0.5-1.4c0-0.1,0.1-0.1,0.1-0.1l1.4-0.5c0.2-0.1,0.2-0.3,0-0.3l-1.4-0.5
				c-0.1,0-0.1-0.1-0.1-0.1l-0.5-1.4C1128.5,464.6,1128.3,464.6,1128.2,464.8z"/>
			<path class="st39" d="M1053.6,440.3l-1,2.9c0,0.1-0.1,0.2-0.2,0.2l-2.9,1c-0.3,0.1-0.3,0.6,0,0.7l2.9,1c0.1,0,0.2,0.1,0.2,0.2
				l1,2.9c0.1,0.3,0.6,0.3,0.7,0l1-2.9c0-0.1,0.1-0.2,0.2-0.2l2.9-1c0.3-0.1,0.3-0.6,0-0.7l-2.9-1c-0.1,0-0.2-0.1-0.2-0.2l-1-2.9
				C1054.2,439.9,1053.8,439.9,1053.6,440.3z"/>
			<circle class="st39" cx="1111.5" cy="451.9" r="0.7"/>
			<circle class="st39" cx="1107" cy="490.6" r="0.7"/>
			<circle class="st39" cx="1065.2" cy="445.5" r="0.7"/>
			<circle class="st39" cx="1061.5" cy="471" r="0.7"/>
			<circle class="st39" cx="1136.6" cy="465.4" r="0.7"/>
			<circle class="st39" cx="1094.9" cy="479.4" r="1.4"/>
			<circle class="st39" cx="1081.3" cy="448.2" r="1.4"/>
		</g>
		<path class="st27" d="M1078.4,409.3c-1.6,2.8-8,7.1-16.3,10.6s-15.8,5.1-19,4.2c1.6-2.8,8-7.1,16.3-10.6
			C1067.7,410.1,1075.2,408.5,1078.4,409.3z"/>
	</g>
	<g class="st40">
		
			<radialGradient id="SVGID_31_" cx="-2975.9707" cy="445.7573" r="31.8167" gradientTransform="matrix(-0.9993 3.798578e-02 -3.798578e-02 -0.9993 -1340.1622 907.8811)" gradientUnits="userSpaceOnUse">
			<stop  offset="0" style="stop-color:#3BC2FF"/>
			<stop  offset="0.1072" style="stop-color:#36AFEE"/>
			<stop  offset="0.7247" style="stop-color:#1D468F"/>
			<stop  offset="1" style="stop-color:#131C69"/>
		</radialGradient>
		<path class="st41" d="M1630.5,355.4c12.8,4.8,24.3,5.7,26,2.1l0.1-0.3c0.3-0.9,0.6-1.7,0.8-2.6c0.1-0.3,0.1-0.5,0.2-0.8
			c0-0.1,0-0.2,0.1-0.3l0,0l0,0l0,0c0-0.1,0-0.1,0-0.1l0,0c0-0.2,0-0.5,0.2-0.6l0,0l0,0l0,0l0,0c0.2-1,0.3-1.9,0.3-2.9
			c0-0.1,0-0.3,0-0.4l0,0c0-0.4,0-0.9,0-1.3c-0.1-2.9-0.6-5.8-1.6-8.4c-0.7-1.8-1.6-3.6-2.7-5.2c-0.1-0.2-0.3-0.4-0.4-0.6
			c-1.1-1.6-2.5-3-4-4.3c-0.1-0.1-0.2-0.2-0.4-0.3c-0.3-0.3-0.7-0.6-1.1-0.8c-0.2-0.1-0.4-0.3-0.6-0.4s-0.4-0.2-0.5-0.4
			c-0.2-0.1-0.4-0.3-0.6-0.4c-1.3-0.8-2.8-1.5-4.3-2.1c-3.4-1.3-6.8-1.8-10.2-1.6c-0.1,0-0.3,0-0.4,0h-0.1c-0.1,0-0.2,0-0.2,0
			c-0.1,0-0.2,0-0.3,0h-0.1c-0.1,0-0.2,0-0.3,0c-0.1,0-0.2,0-0.2,0c-0.1,0-0.1,0-0.2,0s-0.2,0-0.3,0c-0.1,0-0.2,0-0.3,0h-0.1
			c-0.1,0-0.2,0-0.4,0.1h-0.1c-0.1,0-0.3,0.1-0.4,0.1l0,0c-0.2,0-0.3,0.1-0.5,0.1c-0.6,0.1-1.2,0.3-1.8,0.5c-0.1,0-0.2,0-0.2,0.1
			c-0.1,0-0.2,0.1-0.3,0.1h-0.1c-0.1,0-0.2,0.1-0.3,0.1c-0.1,0-0.2,0.1-0.3,0.1h-0.1c-0.1,0-0.2,0.1-0.3,0.1c-0.1,0-0.2,0.1-0.3,0.1
			c-0.1,0-0.2,0.1-0.3,0.1c-0.1,0-0.2,0.1-0.3,0.1c-0.1,0.1-0.2,0.1-0.4,0.2c-0.1,0-0.2,0.1-0.3,0.1c-0.5,0.2-1.1,0.5-1.6,0.8
			c-0.1,0-0.2,0.1-0.2,0.1c-0.1,0-0.1,0.1-0.2,0.1s-0.1,0.1-0.2,0.1s-0.1,0.1-0.2,0.1c-0.1,0.1-0.2,0.1-0.3,0.2c0,0-0.1,0-0.1,0.1
			c-0.1,0.1-0.2,0.1-0.4,0.2l0,0c-0.1,0.1-0.2,0.2-0.3,0.2c-0.4,0.3-0.9,0.6-1.3,0.9c-0.1,0.1-0.3,0.2-0.4,0.3
			c-2.2,1.7-4.1,3.9-5.6,6.3l0,0c0,0.2-0.1,0.4-0.2,0.5l-0.1,0.1c0,0,0,0-0.1,0c-0.7,1.2-1.3,2.5-1.8,3.8l-0.1,0.2
			C1608.4,343.6,1617.7,350.5,1630.5,355.4z"/>
		
			<radialGradient id="SVGID_32_" cx="-3008.4014" cy="471.5258" r="16.0792" gradientTransform="matrix(-0.9993 3.798578e-02 -3.798578e-02 -0.9993 -1340.1622 907.8811)" gradientUnits="userSpaceOnUse">
			<stop  offset="0" style="stop-color:#12A6E8"/>
			<stop  offset="1" style="stop-color:#12A6E8;stop-opacity:0"/>
		</radialGradient>
		<path class="st42" d="M1617.5,328.8c6.7-3.7,14.8-4.5,22.5-1.7c10.6,4,17.2,13.9,17.5,24.6c0,0.3,0,0.5,0,0.8c0,0.7,0,1.4-0.1,2.1
			c0.1-0.3,0.1-0.6,0.2-0.9c0-0.1,0-0.2,0.1-0.3l0,0l0,0l0,0c0-0.1,0-0.1,0-0.1l0,0c0-0.2,0-0.5,0.2-0.6l0,0l0,0
			c0.2-1,0.3-1.9,0.3-2.9c0-0.1,0-0.3,0-0.4l0,0c0-0.4,0-0.9,0-1.3c-0.1-2.9-0.6-5.8-1.6-8.4c-0.7-1.8-1.6-3.6-2.7-5.2
			c-0.1-0.2-0.3-0.4-0.4-0.6c-1.1-1.6-2.5-3-4-4.3c-0.1-0.1-0.2-0.2-0.4-0.3c-0.3-0.3-0.7-0.6-1.1-0.8c-0.2-0.1-0.4-0.3-0.6-0.4
			s-0.4-0.2-0.5-0.4c-0.2-0.1-0.4-0.3-0.6-0.4c-1.3-0.8-2.8-1.5-4.3-2.1c-3.4-1.3-6.8-1.8-10.2-1.6c-0.1,0-0.3,0-0.4,0h-0.1
			c-0.1,0-0.2,0-0.2,0c-0.1,0-0.2,0-0.3,0h-0.1c-0.1,0-0.2,0-0.3,0c-0.1,0-0.2,0-0.2,0c-0.1,0-0.1,0-0.2,0s-0.2,0-0.3,0
			c-0.1,0-0.2,0-0.3,0h-0.1c-0.1,0-0.2,0-0.4,0.1h-0.1c-0.1,0-0.3,0.1-0.4,0.1l0,0c-0.2,0-0.3,0.1-0.5,0.1c-0.6,0.1-1.2,0.3-1.8,0.5
			c-0.1,0-0.2,0-0.2,0.1c-0.1,0-0.2,0.1-0.3,0.1h-0.1c-0.1,0-0.2,0.1-0.3,0.1c-0.1,0-0.2,0.1-0.3,0.1h-0.1c-0.1,0-0.2,0.1-0.3,0.1
			c-0.1,0-0.2,0.1-0.3,0.1c-0.1,0-0.2,0.1-0.3,0.1c-0.1,0-0.2,0.1-0.3,0.1c-0.1,0.1-0.2,0.1-0.4,0.2c-0.1,0-0.2,0.1-0.3,0.1
			c-0.5,0.2-1.1,0.5-1.6,0.8c-0.1,0-0.2,0.1-0.2,0.1c-0.1,0-0.1,0.1-0.2,0.1s-0.1,0.1-0.2,0.1s-0.1,0.1-0.2,0.1
			c-0.1,0.1-0.2,0.1-0.3,0.2c0,0-0.1,0-0.1,0.1c-0.1,0.1-0.2,0.1-0.4,0.2l0,0c-0.1,0.1-0.2,0.2-0.3,0.2c-0.4,0.3-0.9,0.6-1.3,0.9
			C1617.7,328.6,1617.6,328.7,1617.5,328.8z"/>
		
			<linearGradient id="SVGID_33_" gradientUnits="userSpaceOnUse" x1="1614.6041" y1="456.1098" x2="1614.4333" y2="434.5132" gradientTransform="matrix(0.9993 -3.798578e-02 -3.798578e-02 -0.9993 36.6409 855.5444)">
			<stop  offset="0" style="stop-color:#6120D5"/>
			<stop  offset="0.117" style="stop-color:#7238DB"/>
			<stop  offset="0.4188" style="stop-color:#9A72EB"/>
			<stop  offset="0.6771" style="stop-color:#B79CF6"/>
			<stop  offset="0.8789" style="stop-color:#C8B6FC"/>
			<stop  offset="0.9994" style="stop-color:#CFC0FF"/>
		</linearGradient>
		<path class="st43" d="M1609.7,339.6L1609.7,339.6c1.6-3.7,13.2-2.8,26,2s22.1,11.7,20.9,15.6v0.1c0,0,0,0.1-0.1,0.1
			c-1.7,3.6-13.2,2.7-26-2.1c-12.9-4.8-22.2-11.8-20.9-15.6l0,0C1609.6,339.7,1609.6,339.7,1609.7,339.6
			C1609.6,339.6,1609.6,339.6,1609.7,339.6z M1630.8,354.6c12.2,4.6,23,5.7,24.2,2.5s-7.7-9.4-19.9-14c-12.2-4.6-23-5.7-24.2-2.5
			C1609.8,343.7,1618.7,350,1630.8,354.6z"/>
		<g>
			
				<linearGradient id="SVGID_34_" gradientUnits="userSpaceOnUse" x1="-3016.6951" y1="440.1977" x2="-3016.6951" y2="440.1977" gradientTransform="matrix(-0.9993 3.798578e-02 -3.798578e-02 -0.9993 -1340.1622 907.8811)">
				<stop  offset="6.200396e-04" style="stop-color:#12A6E8"/>
				<stop  offset="0.1414" style="stop-color:#1CAAEA"/>
				<stop  offset="0.3772" style="stop-color:#35B5EE"/>
				<stop  offset="0.6789" style="stop-color:#60C7F6"/>
				<stop  offset="1" style="stop-color:#94DEFF"/>
			</linearGradient>
			<path class="st44" d="M1657.7,353.4L1657.7,353.4L1657.7,353.4L1657.7,353.4z"/>
			
				<linearGradient id="SVGID_35_" gradientUnits="userSpaceOnUse" x1="-3016.9253" y1="450.6612" x2="-2971.4055" y2="450.6612" gradientTransform="matrix(-0.9993 3.798578e-02 -3.798578e-02 -0.9993 -1340.1622 907.8811)">
				<stop  offset="6.200396e-04" style="stop-color:#12A6E8"/>
				<stop  offset="0.1414" style="stop-color:#1CAAEA"/>
				<stop  offset="0.3772" style="stop-color:#35B5EE"/>
				<stop  offset="0.6789" style="stop-color:#60C7F6"/>
				<stop  offset="1" style="stop-color:#94DEFF"/>
			</linearGradient>
			<path class="st45" d="M1611.7,335.6c3.4-2.4,13.8-1.1,25,3.1c10.9,4.1,19.5,9.8,20.8,13.8c0.1,0.2,0.1,0.5,0.2,0.7
				c0-0.2,0-0.5,0.2-0.6l0,0l0,0l0,0l0,0l0,0c-0.1-0.3-0.2-0.6-0.3-0.8c-2.1-4-10.3-9.4-20.7-13.3c-10.9-4.1-21.2-5.4-24.9-3.3l0,0
				l0,0l0,0C1611.9,335.3,1611.8,335.5,1611.7,335.6z"/>
		</g>
		
			<radialGradient id="SVGID_36_" cx="-2103.9729" cy="108.0041" r="41.6415" gradientTransform="matrix(-0.9362 -0.3515 0.1499 -0.3994 -355.7993 -340.4419)" gradientUnits="userSpaceOnUse">
			<stop  offset="0" style="stop-color:#6120D5"/>
			<stop  offset="0.3132" style="stop-color:#411EA8"/>
			<stop  offset="0.6041" style="stop-color:#281D86"/>
			<stop  offset="0.8429" style="stop-color:#191C71"/>
			<stop  offset="1" style="stop-color:#131C69"/>
		</radialGradient>
		<path class="st46" d="M1611,340.6c-1.2,3.2,7.7,9.4,19.9,14c12.2,4.6,23,5.7,24.2,2.5s-7.7-9.4-19.9-14
			C1623,338.5,1612.1,337.4,1611,340.6z"/>
		
			<linearGradient id="SVGID_37_" gradientUnits="userSpaceOnUse" x1="-2052.0684" y1="763.0929" x2="-2102.4917" y2="843.8636" gradientTransform="matrix(-0.9362 -0.3515 0.3515 -0.9362 -637.2078 408.8633)">
			<stop  offset="0" style="stop-color:#A185FF;stop-opacity:0"/>
			<stop  offset="0.5191" style="stop-color:#A185FF;stop-opacity:0.7"/>
			<stop  offset="1" style="stop-color:#6120D5"/>
		</linearGradient>
		<path class="st47" d="M1635.1,343.1c12.2,4.6,21,10.8,19.9,14l0,0c-26.1,62.9-89.5,53.7-117.9,47.9l-0.6-12.7
			c49.5,1.2,66.8-22.3,74.5-51.7C1611.9,336.9,1623,338.5,1635.1,343.1z"/>
		
			<radialGradient id="SVGID_38_" cx="-2104.1106" cy="-1309.7177" r="13.4387" gradientTransform="matrix(-0.9362 -0.3515 7.120422e-02 -0.1897 -244.2983 -637.5562)" gradientUnits="userSpaceOnUse">
			<stop  offset="0" style="stop-color:#221C88"/>
			<stop  offset="0.2999" style="stop-color:#241C8A"/>
			<stop  offset="0.4726" style="stop-color:#291E93"/>
			<stop  offset="0.6129" style="stop-color:#3121A1"/>
			<stop  offset="0.7359" style="stop-color:#3D25B5"/>
			<stop  offset="0.8476" style="stop-color:#4D2ACE"/>
			<stop  offset="0.9496" style="stop-color:#6030ED"/>
			<stop  offset="0.9976" style="stop-color:#6B34FF"/>
		</radialGradient>
		<path class="st48" d="M1623.7,344.9c-0.5,1.3,3.3,3.9,8.5,5.9c5.2,1.9,9.8,2.5,10.3,1.2c0.1-0.2,0-0.5-0.2-0.9
			c-1.5,0.5-5.4-0.2-9.6-1.7s-7.5-3.6-8.3-5C1624.1,344.5,1623.8,344.7,1623.7,344.9z"/>
		<path class="st12" d="M1624.4,344.4c0.8,1.4,4.1,3.4,8.3,5s8,2.2,9.6,1.7c-0.8-1.4-4.1-3.4-8.3-5S1626,343.9,1624.4,344.4z"/>
		<path class="st23" d="M1624.4,344.4c0.8,1.4,4.1,3.4,8.3,5s8,2.2,9.6,1.7c-0.8-1.4-4.1-3.4-8.3-5S1626,343.9,1624.4,344.4z"/>
		
			<linearGradient id="SVGID_39_" gradientUnits="userSpaceOnUse" x1="-2072.5005" y1="829.0782" x2="-2072.5005" y2="771.9933" gradientTransform="matrix(-0.9362 -0.3515 0.3515 -0.9362 -637.2078 408.8633)">
			<stop  offset="0" style="stop-color:#A185FF"/>
			<stop  offset="1" style="stop-color:#A185FF;stop-opacity:0"/>
		</linearGradient>
		<path class="st49" d="M1624.5,344.4c-13.4,37.6-40.8,58.2-87.8,53.3l0.1,4.2c50.4,8.4,88.6-9.5,105.5-50.7c-2.3-2-5.4-3.8-8.3-5
			C1630.3,344.8,1624.7,343.9,1624.5,344.4z"/>
		
			<linearGradient id="SVGID_40_" gradientUnits="userSpaceOnUse" x1="1594.5956" y1="416.0808" x2="1612.1233" y2="441.4113" gradientTransform="matrix(0.9993 -3.798578e-02 -3.798578e-02 -0.9993 36.6409 855.5444)">
			<stop  offset="5.993717e-04" style="stop-color:#6120D5"/>
			<stop  offset="0.1731" style="stop-color:#7741DE"/>
			<stop  offset="0.5605" style="stop-color:#A685EF"/>
			<stop  offset="0.8409" style="stop-color:#C4B0FB"/>
			<stop  offset="0.9836" style="stop-color:#CFC0FF"/>
		</linearGradient>
		<path class="st50" d="M1633.2,368.3c3.6-10.6-8.4,0-12.5,2.6c-7.4,4.9-9.6-0.4-5.7-6.5l0,0c3.7-6,6.9-12.7,9.5-20
			c0.2-0.6,5.8,0.3,9.5,1.7c3,1.1,6,2.9,8.3,5C1639.7,357.4,1636.7,363.1,1633.2,368.3z"/>
		
			<linearGradient id="SVGID_41_" gradientUnits="userSpaceOnUse" x1="1584.3931" y1="403.6429" x2="1618.7212" y2="450.2889" gradientTransform="matrix(0.9993 -3.798578e-02 -3.798578e-02 -0.9993 36.6409 855.5444)">
			<stop  offset="5.993717e-04" style="stop-color:#6120D5"/>
			<stop  offset="0.2435" style="stop-color:#8655E3;stop-opacity:0.8299"/>
			<stop  offset="0.4864" style="stop-color:#A583EF;stop-opacity:0.6597"/>
			<stop  offset="0.7017" style="stop-color:#BCA4F8;stop-opacity:0.509"/>
			<stop  offset="0.8802" style="stop-color:#CAB9FD;stop-opacity:0.3839"/>
			<stop  offset="1" style="stop-color:#CFC0FF;stop-opacity:0.3"/>
		</linearGradient>
		<path class="st51" d="M1642.3,351.1c-5.6,13.8-13.6,25-23.7,33.4l-0.1,0.1c-1.9,1.6-21.1,12.2-22.5,9.4c-1-1.9,13.4-10.6,9.8-17.6
			l0,0c8-8.5,14.1-19.3,18.6-32c0.2-0.6,5.8,0.3,9.5,1.7C1637,347.3,1640,349.1,1642.3,351.1z"/>
		<g>
			<path class="st14" d="M1635.2,367.7l0.4,0.9c0,0,0,0.1,0.1,0.1l1,0.3c0.1,0,0.1,0.2,0,0.2l-0.9,0.4c0,0-0.1,0-0.1,0.1l-0.3,1
				c0,0.1-0.2,0.1-0.2,0l-0.4-1c0,0,0-0.1-0.1-0.1l-1-0.3c-0.1,0-0.1-0.2,0-0.2l0.9-0.4c0,0,0.1,0,0.1-0.1l0.3-1
				C1635,367.6,1635.1,367.6,1635.2,367.7z"/>
			<path class="st14" d="M1624.4,378.3l0.3,0.7c0,0,0,0,0.1,0.1l0.7,0.2c0.1,0,0.1,0.1,0,0.2l-0.7,0.3c0,0,0,0-0.1,0.1l-0.2,0.7
				c0,0.1-0.1,0.1-0.2,0l-0.3-0.7c0,0,0,0-0.1-0.1l-0.7-0.2c-0.1,0-0.1-0.1,0-0.2l0.7-0.3c0,0,0,0,0.1-0.1l0.2-0.7
				C1624.2,378.2,1624.4,378.2,1624.4,378.3z"/>
			<path class="st14" d="M1602,378.7l0.3,0.7c0,0,0,0,0.1,0.1l0.7,0.2c0.1,0,0.1,0.1,0,0.2l-0.7,0.3c0,0,0,0-0.1,0.1l-0.2,0.7
				c0,0.1-0.1,0.1-0.2,0l-0.3-0.7c0,0,0,0-0.1-0.1l-0.7-0.2c-0.1,0-0.1-0.1,0-0.2l0.7-0.3c0,0,0,0,0.1-0.1l0.2-0.7
				C1601.8,378.6,1601.9,378.6,1602,378.7z"/>
			<path class="st14" d="M1619.1,353.8l0.6,1.4c0,0.1,0.1,0.1,0.1,0.1l1.5,0.4c0.2,0.1,0.2,0.3,0,0.4l-1.4,0.6
				c-0.1,0-0.1,0.1-0.1,0.1l-0.4,1.5c-0.1,0.2-0.3,0.2-0.4,0l-0.6-1.4c0-0.1-0.1-0.1-0.1-0.1l-1.5-0.4c-0.2-0.1-0.2-0.3,0-0.4
				l1.4-0.6c0.1,0,0.1-0.1,0.1-0.1l0.4-1.5C1618.7,353.6,1619,353.6,1619.1,353.8z"/>
			<circle class="st14" cx="1614" cy="363.6" r="0.4"/>
			<circle class="st14" cx="1614.8" cy="384" r="0.4"/>
			<circle class="st14" cx="1602.8" cy="374.4" r="0.4"/>
			<circle class="st14" cx="1638.7" cy="362.4" r="0.4"/>
			<circle class="st14" cx="1638.5" cy="373.8" r="0.4"/>
			<circle class="st14" cx="1613.8" cy="392.3" r="0.4"/>
			<circle class="st14" cx="1622.8" cy="386.4" r="0.7"/>
			<circle class="st14" cx="1593.5" cy="381.2" r="0.7"/>
			<circle class="st14" cx="1623.1" cy="359.2" r="0.7"/>
		</g>
		<path class="st27" d="M1624.4,344.4c0.8,1.4,4.1,3.4,8.3,5s8,2.2,9.6,1.7c-0.8-1.4-4.1-3.4-8.3-5S1626,343.9,1624.4,344.4z"/>
	</g>
	<g class="st52">
		
			<radialGradient id="SVGID_42_" cx="322.5861" cy="451.5526" r="46.9372" gradientTransform="matrix(0.99 -0.1412 -0.1412 -0.99 168.9489 832.2442)" gradientUnits="userSpaceOnUse">
			<stop  offset="0" style="stop-color:#3BC2FF"/>
			<stop  offset="0.1072" style="stop-color:#36AFEE"/>
			<stop  offset="0.7247" style="stop-color:#1D468F"/>
			<stop  offset="1" style="stop-color:#131C69"/>
		</radialGradient>
		<path class="st53" d="M436.5,342.3v0.3c0.6,6.4-16.3,14-38,17.1c-21.6,3.1-40,0.5-41.3-5.7l-0.1-0.5c-0.2-1.4-0.3-2.8-0.3-4.2l0,0
			c0-0.2,0-0.3,0-0.5c0-0.5,0-0.9,0-1.4c0,0,0,0,0-0.1l0,0l0,0l0,0c0-0.1,0.1-0.2,0.1-0.3l0,0c0.1-0.4,0.1-0.8-0.1-1.1l0,0
			c0-0.3,0-0.6,0.1-0.9c0-0.2,0-0.3,0-0.5s0-0.3,0-0.5s0-0.3,0-0.5s0-0.3,0.1-0.5c0-0.1,0-0.3,0.1-0.4c0-0.2,0-0.3,0.1-0.5
			c0-0.2,0-0.3,0.1-0.5c0-0.3,0.1-0.6,0.2-0.9s0.1-0.6,0.2-0.9s0.1-0.6,0.2-0.9c0-0.1,0.1-0.3,0.1-0.4s0.1-0.3,0.1-0.4
			s0.1-0.3,0.1-0.4s0.1-0.3,0.1-0.4s0.1-0.3,0.1-0.4s0.1-0.3,0.1-0.4c0.1-0.4,0.3-0.9,0.4-1.3c0.2-0.6,0.4-1.1,0.6-1.7
			c0.1-0.1,0.1-0.3,0.2-0.4l0,0c0.1-0.3,0.2-0.5,0.3-0.8c0.1-0.1,0.1-0.3,0.2-0.4s0.1-0.3,0.2-0.4c0.2-0.4,0.4-0.8,0.6-1.2
			c0.1-0.3,0.3-0.5,0.4-0.8c0.1-0.1,0.1-0.3,0.2-0.4c0.4-0.7,0.7-1.3,1.1-1.9c0.1-0.1,0.2-0.3,0.3-0.4c0.1-0.2,0.3-0.5,0.5-0.7
			c0.1-0.1,0.2-0.2,0.2-0.4c0.4-0.6,0.9-1.2,1.3-1.8c0.1-0.1,0.2-0.2,0.3-0.4c0.1-0.1,0.2-0.2,0.3-0.4c0.1-0.1,0.2-0.2,0.3-0.4
			c0.2-0.2,0.4-0.5,0.6-0.7l0,0c0.2-0.2,0.4-0.5,0.6-0.7l0,0c0.3-0.3,0.6-0.6,0.9-1c0.5-0.5,1-1.1,1.6-1.6l0,0
			c0.1-0.1,0.2-0.2,0.3-0.3c0.1-0.1,0.2-0.2,0.3-0.3c0.2-0.2,0.4-0.4,0.6-0.5c0.2-0.2,0.5-0.4,0.7-0.6s0.5-0.4,0.7-0.6
			s0.5-0.4,0.7-0.5c0.2-0.2,0.5-0.4,0.7-0.5c0.1-0.1,0.2-0.2,0.4-0.3c0.1-0.1,0.2-0.2,0.4-0.3c0.1-0.1,0.3-0.2,0.4-0.3
			c0.1-0.1,0.3-0.2,0.4-0.2c0.1-0.1,0.3-0.2,0.4-0.2c0.3-0.2,0.6-0.3,0.8-0.5c0.2-0.1,0.5-0.3,0.7-0.4c0.5-0.3,1.1-0.6,1.6-0.9
			c0.1-0.1,0.2-0.1,0.3-0.2c0.6-0.3,1.2-0.6,1.7-0.8c0.1-0.1,0.3-0.1,0.4-0.2s0.3-0.1,0.4-0.2c0.2-0.1,0.5-0.2,0.8-0.3
			c0.1,0,0.1-0.1,0.2-0.1s0.2-0.1,0.3-0.1c0.8-0.3,1.5-0.5,2.3-0.8c0.1,0,0.3-0.1,0.4-0.1c0.2,0,0.3-0.1,0.5-0.1
			c0.1,0,0.3-0.1,0.4-0.1c0.4-0.1,0.7-0.2,1.1-0.3c0.2,0,0.3-0.1,0.5-0.1c0.1,0,0.3-0.1,0.4-0.1s0.2,0,0.3-0.1
			c0.1,0,0.3-0.1,0.4-0.1c0.2,0,0.3-0.1,0.5-0.1c0.5-0.1,0.9-0.2,1.4-0.2c0.2,0,0.4-0.1,0.6-0.1c0.1,0,0.1,0,0.2,0s0.3,0,0.4,0
			s0.2,0,0.3,0c0.4,0,0.8-0.1,1.2-0.1c0.2,0,0.4,0,0.6,0s0.4,0,0.7,0l0,0c0.4,0,0.8,0,1.2,0h0.1c0.2,0,0.4,0,0.6,0s0.4,0,0.7,0
			c0.2,0,0.4,0,0.6,0h0.1c0.2,0,0.4,0,0.6,0s0.4,0,0.6,0h0.1c0.2,0,0.4,0,0.6,0c0.3,0,0.5,0,0.8,0.1c0.2,0,0.4,0,0.6,0.1
			c0.2,0,0.4,0.1,0.6,0.1s0.4,0.1,0.6,0.1s0.5,0.1,0.7,0.1s0.4,0.1,0.5,0.1c0.2,0,0.4,0.1,0.6,0.1c0.4,0.1,0.8,0.2,1.2,0.3
			c0.6,0.2,1.3,0.3,1.9,0.5c0.2,0.1,0.4,0.1,0.6,0.2s0.4,0.1,0.6,0.2l0,0c0.2,0.1,0.4,0.1,0.6,0.2s0.4,0.1,0.5,0.2
			c0.4,0.2,0.9,0.3,1.3,0.5c0.2,0.1,0.3,0.1,0.5,0.2c0.5,0.2,1.1,0.5,1.6,0.7c0.1,0.1,0.3,0.1,0.4,0.2c0.2,0.1,0.4,0.2,0.7,0.3
			c1.5,0.8,3,1.7,4.4,2.6c0.1,0.1,0.2,0.1,0.3,0.2c0.7,0.5,1.3,0.9,1.9,1.4c0.1,0.1,0.2,0.2,0.3,0.2c0.2,0.1,0.3,0.3,0.5,0.4
			c0.2,0.2,0.5,0.4,0.7,0.6c0.5,0.4,1,0.8,1.4,1.3c0.1,0.1,0.2,0.2,0.2,0.2c0.3,0.3,0.6,0.6,0.8,0.8c0.2,0.2,0.3,0.3,0.5,0.5
			s0.5,0.5,0.7,0.7c0.1,0.1,0.2,0.3,0.3,0.4c0.1,0.1,0.2,0.3,0.4,0.4c0.1,0.1,0.2,0.2,0.3,0.3c0.1,0.1,0.2,0.2,0.3,0.3
			c2.8,3.5,5.1,7.4,6.6,11.8l0,0c-0.2,0.4,0.1,0.8,0.3,1c0,0,0.1,0,0.1,0.1C435.6,337.8,436.2,340,436.5,342.3z"/>
		
			<radialGradient id="SVGID_43_" cx="270.9161" cy="487.6267" r="24.2983" gradientTransform="matrix(0.99 -0.1412 -0.1412 -0.99 168.9489 832.2442)" gradientUnits="userSpaceOnUse">
			<stop  offset="0" style="stop-color:#12A6E8"/>
			<stop  offset="1" style="stop-color:#12A6E8;stop-opacity:0"/>
		</radialGradient>
		<path class="st54" d="M428,322.9c-9.1-8.1-21.6-12.2-34.6-10.4c-17.9,2.6-31.7,15.8-35.8,32.3c-0.1,0.4-0.2,0.8-0.3,1.2
			c-0.2,1.1-0.4,2.2-0.6,3.3c0-0.2,0-0.3,0-0.5c0-0.5,0-0.9,0-1.4c0,0,0,0,0-0.1l0,0l0,0l0,0l0,0c0-0.1,0.1-0.2,0.1-0.3l0,0
			c0.1-0.4,0.1-0.8-0.1-1.1l0,0c0-0.3,0-0.6,0.1-0.9c0-0.2,0-0.3,0-0.5s0-0.3,0-0.5s0-0.3,0-0.5s0-0.3,0.1-0.5c0-0.1,0-0.3,0.1-0.4
			c0-0.2,0-0.3,0.1-0.5c0-0.2,0-0.3,0.1-0.5c0-0.3,0.1-0.6,0.2-0.9s0.1-0.6,0.2-0.9s0.1-0.6,0.2-0.9c0-0.1,0.1-0.3,0.1-0.4
			s0.1-0.3,0.1-0.4s0.1-0.3,0.1-0.4s0.1-0.3,0.1-0.4s0.1-0.3,0.1-0.4s0.1-0.3,0.1-0.4c0.1-0.4,0.3-0.9,0.4-1.3
			c0.2-0.6,0.4-1.1,0.6-1.7c0.1-0.1,0.1-0.3,0.2-0.4l0,0c0.1-0.3,0.2-0.5,0.3-0.8c0.1-0.1,0.1-0.3,0.2-0.4s0.1-0.3,0.2-0.4
			c0.2-0.4,0.4-0.8,0.6-1.2c0.1-0.3,0.3-0.5,0.4-0.8c0.1-0.1,0.1-0.3,0.2-0.4c0.4-0.7,0.7-1.3,1.1-1.9c0.1-0.1,0.2-0.3,0.3-0.4
			c0.2-0.2,0.3-0.5,0.5-0.7c0.1-0.1,0.2-0.2,0.2-0.4c0.4-0.6,0.9-1.2,1.3-1.8c0.1-0.1,0.2-0.2,0.3-0.4c0.1-0.1,0.2-0.2,0.3-0.4
			c0.1-0.1,0.2-0.2,0.3-0.4c0.2-0.2,0.4-0.5,0.6-0.7l0,0c0.2-0.2,0.4-0.5,0.6-0.7l0,0c0.3-0.3,0.6-0.6,0.9-1c0.5-0.5,1-1.1,1.6-1.6
			l0,0c0.1-0.1,0.2-0.2,0.3-0.3c0.1-0.1,0.2-0.2,0.3-0.3c0.2-0.2,0.4-0.4,0.6-0.5c0.2-0.2,0.5-0.4,0.7-0.6s0.5-0.4,0.7-0.6
			s0.5-0.4,0.7-0.5c0.2-0.2,0.5-0.4,0.7-0.5c0.1-0.1,0.2-0.2,0.4-0.3c0.1-0.1,0.2-0.2,0.4-0.3c0.1-0.1,0.3-0.2,0.4-0.3
			c0.1-0.1,0.3-0.2,0.4-0.2c0.1-0.1,0.3-0.2,0.4-0.2c0.3-0.2,0.6-0.3,0.8-0.5c0.2-0.1,0.5-0.3,0.7-0.4c0.5-0.3,1.1-0.6,1.6-0.9
			c0.1-0.1,0.2-0.1,0.3-0.2c0.6-0.3,1.2-0.6,1.7-0.8c0.1-0.1,0.3-0.1,0.4-0.2s0.3-0.1,0.4-0.2c0.2-0.1,0.5-0.2,0.8-0.3
			c0.1,0,0.1-0.1,0.2-0.1s0.2-0.1,0.3-0.1c0.8-0.3,1.5-0.5,2.3-0.8c0.1,0,0.3-0.1,0.4-0.1c0.2,0,0.3-0.1,0.5-0.1
			c0.1,0,0.3-0.1,0.4-0.1c0.4-0.1,0.7-0.2,1.1-0.3c0.2,0,0.3-0.1,0.5-0.1c0.1,0,0.3-0.1,0.4-0.1s0.2,0,0.3-0.1
			c0.1,0,0.3-0.1,0.4-0.1c0.2,0,0.3-0.1,0.5-0.1c0.5-0.1,0.9-0.2,1.4-0.2c0.2,0,0.4-0.1,0.6-0.1c0.1,0,0.1,0,0.2,0s0.3,0,0.4,0
			s0.2,0,0.3,0c0.4,0,0.8-0.1,1.2-0.1c0.2,0,0.4,0,0.6,0s0.4,0,0.7,0l0,0c0.4,0,0.8,0,1.2,0h0.1c0.2,0,0.4,0,0.6,0s0.4,0,0.7,0
			c0.2,0,0.4,0,0.6,0h0.1c0.2,0,0.4,0,0.6,0s0.4,0,0.6,0h0.1c0.2,0,0.4,0,0.6,0c0.3,0,0.5,0,0.8,0.1c0.2,0,0.4,0,0.6,0.1
			c0.2,0,0.4,0.1,0.6,0.1s0.4,0.1,0.6,0.1s0.5,0.1,0.7,0.1s0.4,0.1,0.5,0.1c0.2,0,0.4,0.1,0.6,0.1c0.4,0.1,0.8,0.2,1.2,0.3
			c0.6,0.2,1.3,0.3,1.9,0.5c0.2,0.1,0.4,0.1,0.6,0.2s0.4,0.1,0.6,0.2l0,0c0.2,0.1,0.4,0.1,0.6,0.2s0.4,0.1,0.5,0.2
			c0.4,0.2,0.9,0.3,1.3,0.5c0.2,0.1,0.3,0.1,0.5,0.2c0.5,0.2,1.1,0.5,1.6,0.7c0.1,0.1,0.3,0.1,0.4,0.2c0.2,0.1,0.4,0.2,0.7,0.3
			c1.5,0.8,3,1.7,4.4,2.6c0.1,0.1,0.2,0.1,0.3,0.2c0.7,0.5,1.3,0.9,1.9,1.4c0.1,0.1,0.2,0.2,0.3,0.2c0.2,0.1,0.3,0.3,0.5,0.4
			c0.2,0.2,0.5,0.4,0.7,0.6c0.5,0.4,1,0.8,1.4,1.3c0.1,0.1,0.2,0.2,0.2,0.2c0.3,0.3,0.6,0.6,0.8,0.8c0.2,0.2,0.3,0.3,0.5,0.5
			s0.5,0.5,0.7,0.7c0.1,0.1,0.2,0.3,0.3,0.4c0.1,0.1,0.2,0.3,0.4,0.4c0.1,0.1,0.2,0.2,0.3,0.3C427.8,322.6,427.9,322.7,428,322.9z"
			/>
		
			<linearGradient id="SVGID_44_" gradientUnits="userSpaceOnUse" x1="293.996" y1="457.2257" x2="293.8243" y2="435.5021" gradientTransform="matrix(0.99 -0.1412 -0.1412 -0.99 168.9489 832.2442)">
			<stop  offset="0" style="stop-color:#6120D5"/>
			<stop  offset="0.117" style="stop-color:#7238DB"/>
			<stop  offset="0.4188" style="stop-color:#9A72EB"/>
			<stop  offset="0.6771" style="stop-color:#B79CF6"/>
			<stop  offset="0.8789" style="stop-color:#C8B6FC"/>
			<stop  offset="0.9994" style="stop-color:#CFC0FF"/>
		</linearGradient>
		<path class="st55" d="M436.5,342.3L436.5,342.3c-1.2-6.3-19.6-8.9-41.3-5.8c-21.6,3.1-38.5,10.7-38.1,17.1c0,0.1,0,0.2,0,0.2
			c0,0.1,0,0.2,0,0.2c1.3,6.3,19.7,8.8,41.3,5.7c21.7-3.1,38.7-10.7,38-17.1l0,0c0-0.1,0-0.1,0-0.2
			C436.5,342.4,436.5,342.3,436.5,342.3z M398.3,358.4c-20.5,2.9-37.8,1-38.6-4.4s15.3-12.1,35.8-15s37.8-1,38.6,4.4
			C434.9,348.7,418.8,355.5,398.3,358.4z"/>
		<g class="st11">
			<g>
				
					<linearGradient id="SVGID_45_" gradientUnits="userSpaceOnUse" x1="254.5785" y1="459.0518" x2="333.4052" y2="459.0518" gradientTransform="matrix(0.99 -0.1412 -0.1412 -0.99 168.9489 832.2442)">
					<stop  offset="6.200396e-04" style="stop-color:#12A6E8"/>
					<stop  offset="0.1414" style="stop-color:#1CAAEA"/>
					<stop  offset="0.3772" style="stop-color:#35B5EE"/>
					<stop  offset="0.6789" style="stop-color:#60C7F6"/>
					<stop  offset="1" style="stop-color:#94DEFF"/>
				</linearGradient>
				<path class="st56" d="M434.9,335.6L434.9,335.6c-4.2-5-21.1-6.6-40.3-3.9c-18.5,2.6-33.8,8.6-37.2,14.3c-0.2,0.3-0.4,0.7-0.5,1
					c0.1-0.4,0.1-0.8-0.1-1.1l0,0l0,0l0,0c0.2-0.4,0.5-0.8,0.8-1.2c4.6-5.5,19.4-11.1,36.9-13.6c18.5-2.6,34.9-1.2,40.1,3.4l0,0l0,0
					l0,0C434.4,335,434.7,335.4,434.9,335.6z"/>
			</g>
		</g>
		
			<radialGradient id="SVGID_46_" cx="294.1893" cy="-373.6107" r="66.5674" gradientTransform="matrix(0.99 -0.1412 -6.024601e-02 -0.4223 85.1497 244.5194)" gradientUnits="userSpaceOnUse">
			<stop  offset="0" style="stop-color:#6120D5"/>
			<stop  offset="0.3132" style="stop-color:#411EA8"/>
			<stop  offset="0.6041" style="stop-color:#281D86"/>
			<stop  offset="0.8429" style="stop-color:#191C71"/>
			<stop  offset="1" style="stop-color:#131C69"/>
		</radialGradient>
		<path class="st57" d="M434.1,343.4c0.8,5.3-15.3,12.1-35.8,15s-37.8,1-38.6-4.4c-0.8-5.3,15.3-12.1,35.8-15
			C416.1,336.1,433.4,338.1,434.1,343.4z"/>
		
			<linearGradient id="SVGID_47_" gradientUnits="userSpaceOnUse" x1="619.9203" y1="337.6917" x2="492.86" y2="440.1746" gradientTransform="matrix(0.974 0.2264 0.2264 -0.974 -167.7235 691.8571)">
			<stop  offset="0" style="stop-color:#A185FF;stop-opacity:0"/>
			<stop  offset="0.5456" style="stop-color:#A185FF;stop-opacity:0.7"/>
			<stop  offset="1" style="stop-color:#6120D5"/>
		</linearGradient>
		<path class="st58" d="M395.5,339c-20.5,2.9-36.6,9.6-35.8,15l0,0c10.8,75.6,120.6,72.9,127.8,122.8l30-4.3
			c-12.4-86.7-72.5-53.1-83.4-129.1C433.2,337.5,416.1,336.1,395.5,339z"/>
		
			<radialGradient id="SVGID_48_" cx="294.025" cy="-1921.2454" r="21.4828" gradientTransform="matrix(0.99 -0.1412 -2.860917e-02 -0.2006 51.3371 7.5991)" gradientUnits="userSpaceOnUse">
			<stop  offset="0" style="stop-color:#221C88"/>
			<stop  offset="0.2999" style="stop-color:#241C8A"/>
			<stop  offset="0.4726" style="stop-color:#291E93"/>
			<stop  offset="0.6129" style="stop-color:#3121A1"/>
			<stop  offset="0.7359" style="stop-color:#3D25B5"/>
			<stop  offset="0.8476" style="stop-color:#4D2ACE"/>
			<stop  offset="0.9496" style="stop-color:#6030ED"/>
			<stop  offset="0.9976" style="stop-color:#6B34FF"/>
		</radialGradient>
		<path class="st59" d="M412.7,345.8c0.3,2.2-6.5,5-15.3,6.2s-16.1,0.5-16.4-1.7c-0.1-0.4,0.1-0.8,0.6-1.3c2.2,1.3,8.4,1.6,15.5,0.6
			s12.9-3,14.7-4.9C412.3,345,412.6,345.4,412.7,345.8z"/>
		<path class="st12" d="M411.8,344.7c-1.8,1.9-7.6,3.9-14.7,4.9s-13.3,0.7-15.5-0.6c1.8-1.9,7.6-3.9,14.7-4.9
			S409.5,343.4,411.8,344.7z"/>
		<path class="st23" d="M411.8,344.7c-1.8,1.9-7.6,3.9-14.7,4.9s-13.3,0.7-15.5-0.6c1.8-1.9,7.6-3.9,14.7-4.9
			S409.5,343.4,411.8,344.7z"/>
		<path class="st14" d="M356.7,347.4L356.7,347.4L356.7,347.4L356.7,347.4L356.7,347.4z"/>
		
			<linearGradient id="SVGID_49_" gradientUnits="userSpaceOnUse" x1="330.672" y1="404.4518" x2="330.672" y2="309.0768" gradientTransform="matrix(0.99 -0.1412 -0.1412 -0.99 168.9489 832.2442)">
			<stop  offset="0" style="stop-color:#A185FF"/>
			<stop  offset="1" style="stop-color:#A185FF;stop-opacity:0"/>
		</linearGradient>
		<path class="st60" d="M411.6,344.8c11.2,78.3,81.4,48,93,129.6l-4.5,0.6c-10.1-71-105-48.2-118.7-125.9c4.3-2.4,9.7-4.2,14.7-4.9
			C402.5,343.3,411.5,343.8,411.6,344.8z"/>
		
			<linearGradient id="SVGID_50_" gradientUnits="userSpaceOnUse" x1="504.2697" y1="414.0501" x2="460.8807" y2="480.157" gradientTransform="matrix(0.974 0.2264 0.2264 -0.974 -167.7235 691.8571)">
			<stop  offset="5.993717e-04" style="stop-color:#6120D5"/>
			<stop  offset="8.794169e-02" style="stop-color:#6C30D9;stop-opacity:0.965"/>
			<stop  offset="0.5294" style="stop-color:#A17DED;stop-opacity:0.7884"/>
			<stop  offset="0.8442" style="stop-color:#C2ADFA;stop-opacity:0.6624"/>
			<stop  offset="1" style="stop-color:#CFC0FF;stop-opacity:0.6"/>
		</linearGradient>
		<path class="st61" d="M419.3,390c6.9,11,5,14.4-5.8,8.7c-15.3-10.6-27.7-25.1-32-49.6c4.3-2.4,9.7-4.2,14.7-4.9
			c6.2-0.9,15.2-0.4,15.4,0.6c2.7,18.9,8.8,31.4,16.7,40.8c0,0,0,0-0.1,0.1C418.1,375.6,413.2,380.2,419.3,390z"/>
		
			<linearGradient id="SVGID_51_" gradientUnits="userSpaceOnUse" x1="288.6796" y1="438.5921" x2="289.0971" y2="438.5921" gradientTransform="matrix(0.974 0.2264 0.2264 -0.974 -167.7235 691.8571)">
			<stop  offset="5.993717e-04" style="stop-color:#6120D5"/>
			<stop  offset="3.707515e-02" style="stop-color:#692BD8;stop-opacity:0.9745"/>
			<stop  offset="0.2002" style="stop-color:#8858E4;stop-opacity:0.8602"/>
			<stop  offset="0.3644" style="stop-color:#A17EEE;stop-opacity:0.7452"/>
			<stop  offset="0.5272" style="stop-color:#B59BF5;stop-opacity:0.6312"/>
			<stop  offset="0.6883" style="stop-color:#C4AFFB;stop-opacity:0.5183"/>
			<stop  offset="0.8468" style="stop-color:#CCBCFE;stop-opacity:0.4073"/>
			<stop  offset="1" style="stop-color:#CFC0FF;stop-opacity:0.3"/>
		</linearGradient>
		<path class="st62" d="M460.2,415.4c-15.8-7.5-26.4-8.1-15.8,0.2l0,0c-27.4-13.2-55.8-26.6-62.9-66.5c4.3-2.4,9.7-4.2,14.7-4.9
			c6.2-0.9,15.2-0.4,15.4,0.6c5.4,37.8,24.6,50.3,44.3,62.3C467.6,414.8,465.4,417.9,460.2,415.4z"/>
		<g>
			<path class="st14" d="M391,383.3l-0.3,1.6c0,0.1-0.1,0.1-0.1,0.1l-1.4,0.7c-0.2,0.1-0.1,0.3,0.1,0.4l1.6,0.3
				c0.1,0,0.1,0.1,0.1,0.1l0.7,1.4c0.1,0.2,0.3,0.1,0.4-0.1l0.3-1.6c0-0.1,0.1-0.1,0.1-0.1l1.4-0.7c0.2-0.1,0.1-0.3-0.1-0.4
				l-1.6-0.3c-0.1,0-0.1-0.1-0.1-0.1l-0.7-1.4C391.3,383.1,391.1,383.1,391,383.3z"/>
			<path class="st14" d="M413.7,398l-0.2,1.1c0,0,0,0.1-0.1,0.1l-1,0.5c-0.1,0.1-0.1,0.2,0,0.3l1.1,0.2c0,0,0.1,0,0.1,0.1l0.5,1
				c0.1,0.1,0.2,0.1,0.3,0l0.2-1.1c0,0,0-0.1,0.1-0.1l1-0.5c0.1-0.1,0.1-0.2,0-0.3l-1.1-0.2c0,0-0.1,0-0.1-0.1l-0.5-1
				C413.9,397.8,413.8,397.8,413.7,398z"/>
			<path class="st14" d="M448.3,395.9l-0.2,1.1c0,0,0,0.1-0.1,0.1l-1,0.5c-0.1,0.1-0.1,0.2,0,0.3l1.1,0.2c0,0,0.1,0,0.1,0.1l0.5,1
				c0.1,0.1,0.2,0.1,0.3,0l0.2-1.1c0,0,0-0.1,0.1-0.1l1-0.5c0.1-0.1,0.1-0.2,0-0.3l-1.1-0.2c0,0-0.1,0-0.1-0.1l-0.5-1
				C448.5,395.7,448.3,395.7,448.3,395.9z"/>
			<path class="st14" d="M415.1,357.9l-0.5,2.4c0,0.1-0.1,0.2-0.2,0.2l-2.2,1.1c-0.3,0.1-0.2,0.5,0.1,0.6l2.4,0.5
				c0.1,0,0.2,0.1,0.2,0.2l1.1,2.2c0.1,0.3,0.5,0.2,0.6-0.1l0.5-2.4c0-0.1,0.1-0.2,0.2-0.2l2.2-1.1c0.3-0.1,0.2-0.5-0.1-0.6
				l-2.4-0.5c-0.1,0-0.2-0.1-0.2-0.2l-1.1-2.2C415.6,357.5,415.2,357.6,415.1,357.9z"/>
			<circle class="st14" cx="425.9" cy="371.8" r="0.6"/>
			<circle class="st14" cx="430.5" cy="404.2" r="0.6"/>
			<circle class="st14" cx="387.1" cy="376.4" r="0.6"/>
			<circle class="st14" cx="395" cy="396" r="0.6"/>
			<circle class="st14" cx="416.9" cy="406.1" r="1.1"/>
			<circle class="st14" cx="410.2" cy="367.5" r="1.1"/>
		</g>
		<path class="st27" d="M411.8,344.7c-1.8,1.9-7.6,3.9-14.7,4.9s-13.3,0.7-15.5-0.6c1.8-1.9,7.6-3.9,14.7-4.9
			S409.5,343.4,411.8,344.7z"/>
	</g>
</g>
</svg>
